<svg xmlns="http://www.w3.org/2000/svg" xmlns:xlink="http://www.w3.org/1999/xlink" width="1366" zoomAndPan="magnify" viewBox="0 0 1024.5 576" height="768" preserveAspectRatio="xMidYMid meet" version="1.0"><defs><g/><clipPath id="ec17077560"><path d="M 27.480469 164.101562 L 330.699219 164.101562 L 330.699219 467.320312 L 27.480469 467.320312 Z M 27.480469 164.101562 " clip-rule="nonzero"/></clipPath><clipPath id="b684c0f589"><path d="M 179.089844 164.101562 C 95.359375 164.101562 27.480469 231.976562 27.480469 315.710938 C 27.480469 399.441406 95.359375 467.320312 179.089844 467.320312 C 262.820312 467.320312 330.699219 399.441406 330.699219 315.710938 C 330.699219 231.976562 262.820312 164.101562 179.089844 164.101562 " clip-rule="nonzero"/></clipPath><linearGradient x1="-0.000000629151" gradientTransform="matrix(1.184447, 0, 0, 1.184447, 27.480001, 164.100428)" y1="0" x2="255.999984" gradientUnits="userSpaceOnUse" y2="0" id="2b163e54c5"><stop stop-opacity="1" stop-color="rgb(100%, 34.098816%, 34.098816%)" offset="0"/><stop stop-opacity="1" stop-color="rgb(99.822998%, 34.091187%, 34.356689%)" offset="0.00390625"/><stop stop-opacity="1" stop-color="rgb(99.647522%, 34.085083%, 34.614563%)" offset="0.0078125"/><stop stop-opacity="1" stop-color="rgb(99.47052%, 34.077454%, 34.870911%)" offset="0.0117188"/><stop stop-opacity="1" stop-color="rgb(99.295044%, 34.069824%, 35.128784%)" offset="0.015625"/><stop stop-opacity="1" stop-color="rgb(99.118042%, 34.062195%, 35.385132%)" offset="0.0195312"/><stop stop-opacity="1" stop-color="rgb(98.942566%, 34.054565%, 35.643005%)" offset="0.0234375"/><stop stop-opacity="1" stop-color="rgb(98.765564%, 34.046936%, 35.900879%)" offset="0.0273438"/><stop stop-opacity="1" stop-color="rgb(98.590088%, 34.039307%, 36.158752%)" offset="0.03125"/><stop stop-opacity="1" stop-color="rgb(98.413086%, 34.031677%, 36.4151%)" offset="0.0351562"/><stop stop-opacity="1" stop-color="rgb(98.23761%, 34.025574%, 36.672974%)" offset="0.0390625"/><stop stop-opacity="1" stop-color="rgb(98.060608%, 34.017944%, 36.930847%)" offset="0.0429688"/><stop stop-opacity="1" stop-color="rgb(97.885132%, 34.010315%, 37.188721%)" offset="0.046875"/><stop stop-opacity="1" stop-color="rgb(97.70813%, 34.002686%, 37.445068%)" offset="0.0507812"/><stop stop-opacity="1" stop-color="rgb(97.532654%, 33.995056%, 37.702942%)" offset="0.0546875"/><stop stop-opacity="1" stop-color="rgb(97.355652%, 33.987427%, 37.960815%)" offset="0.0585938"/><stop stop-opacity="1" stop-color="rgb(97.180176%, 33.979797%, 38.218689%)" offset="0.0625"/><stop stop-opacity="1" stop-color="rgb(97.003174%, 33.972168%, 38.475037%)" offset="0.0664062"/><stop stop-opacity="1" stop-color="rgb(96.827698%, 33.966064%, 38.73291%)" offset="0.0703125"/><stop stop-opacity="1" stop-color="rgb(96.650696%, 33.958435%, 38.989258%)" offset="0.0742188"/><stop stop-opacity="1" stop-color="rgb(96.47522%, 33.950806%, 39.247131%)" offset="0.078125"/><stop stop-opacity="1" stop-color="rgb(96.298218%, 33.943176%, 39.505005%)" offset="0.0820312"/><stop stop-opacity="1" stop-color="rgb(96.122742%, 33.935547%, 39.762878%)" offset="0.0859375"/><stop stop-opacity="1" stop-color="rgb(95.947266%, 33.927917%, 40.019226%)" offset="0.0898438"/><stop stop-opacity="1" stop-color="rgb(95.77179%, 33.921814%, 40.2771%)" offset="0.09375"/><stop stop-opacity="1" stop-color="rgb(95.594788%, 33.914185%, 40.534973%)" offset="0.0976562"/><stop stop-opacity="1" stop-color="rgb(95.419312%, 33.906555%, 40.792847%)" offset="0.101562"/><stop stop-opacity="1" stop-color="rgb(95.24231%, 33.898926%, 41.049194%)" offset="0.105469"/><stop stop-opacity="1" stop-color="rgb(95.066833%, 33.891296%, 41.307068%)" offset="0.109375"/><stop stop-opacity="1" stop-color="rgb(94.889832%, 33.883667%, 41.563416%)" offset="0.113281"/><stop stop-opacity="1" stop-color="rgb(94.714355%, 33.876038%, 41.821289%)" offset="0.117188"/><stop stop-opacity="1" stop-color="rgb(94.537354%, 33.868408%, 42.079163%)" offset="0.121094"/><stop stop-opacity="1" stop-color="rgb(94.361877%, 33.862305%, 42.337036%)" offset="0.125"/><stop stop-opacity="1" stop-color="rgb(94.184875%, 33.854675%, 42.593384%)" offset="0.128906"/><stop stop-opacity="1" stop-color="rgb(94.009399%, 33.847046%, 42.851257%)" offset="0.132812"/><stop stop-opacity="1" stop-color="rgb(93.832397%, 33.839417%, 43.109131%)" offset="0.136719"/><stop stop-opacity="1" stop-color="rgb(93.656921%, 33.831787%, 43.367004%)" offset="0.140625"/><stop stop-opacity="1" stop-color="rgb(93.479919%, 33.824158%, 43.623352%)" offset="0.144531"/><stop stop-opacity="1" stop-color="rgb(93.304443%, 33.816528%, 43.881226%)" offset="0.148437"/><stop stop-opacity="1" stop-color="rgb(93.127441%, 33.808899%, 44.137573%)" offset="0.152344"/><stop stop-opacity="1" stop-color="rgb(92.951965%, 33.802795%, 44.395447%)" offset="0.15625"/><stop stop-opacity="1" stop-color="rgb(92.774963%, 33.795166%, 44.65332%)" offset="0.160156"/><stop stop-opacity="1" stop-color="rgb(92.599487%, 33.787537%, 44.911194%)" offset="0.164062"/><stop stop-opacity="1" stop-color="rgb(92.422485%, 33.779907%, 45.167542%)" offset="0.167969"/><stop stop-opacity="1" stop-color="rgb(92.247009%, 33.772278%, 45.425415%)" offset="0.171875"/><stop stop-opacity="1" stop-color="rgb(92.071533%, 33.764648%, 45.683289%)" offset="0.175781"/><stop stop-opacity="1" stop-color="rgb(91.896057%, 33.758545%, 45.941162%)" offset="0.179687"/><stop stop-opacity="1" stop-color="rgb(91.719055%, 33.750916%, 46.19751%)" offset="0.183594"/><stop stop-opacity="1" stop-color="rgb(91.543579%, 33.743286%, 46.455383%)" offset="0.1875"/><stop stop-opacity="1" stop-color="rgb(91.366577%, 33.735657%, 46.711731%)" offset="0.191406"/><stop stop-opacity="1" stop-color="rgb(91.191101%, 33.728027%, 46.969604%)" offset="0.195312"/><stop stop-opacity="1" stop-color="rgb(91.014099%, 33.720398%, 47.227478%)" offset="0.199219"/><stop stop-opacity="1" stop-color="rgb(90.838623%, 33.712769%, 47.485352%)" offset="0.203125"/><stop stop-opacity="1" stop-color="rgb(90.661621%, 33.705139%, 47.741699%)" offset="0.207031"/><stop stop-opacity="1" stop-color="rgb(90.486145%, 33.699036%, 47.999573%)" offset="0.210937"/><stop stop-opacity="1" stop-color="rgb(90.309143%, 33.691406%, 48.257446%)" offset="0.214844"/><stop stop-opacity="1" stop-color="rgb(90.133667%, 33.683777%, 48.51532%)" offset="0.21875"/><stop stop-opacity="1" stop-color="rgb(89.956665%, 33.676147%, 48.771667%)" offset="0.222656"/><stop stop-opacity="1" stop-color="rgb(89.781189%, 33.668518%, 49.029541%)" offset="0.226562"/><stop stop-opacity="1" stop-color="rgb(89.604187%, 33.660889%, 49.287415%)" offset="0.230469"/><stop stop-opacity="1" stop-color="rgb(89.428711%, 33.653259%, 49.545288%)" offset="0.234375"/><stop stop-opacity="1" stop-color="rgb(89.251709%, 33.64563%, 49.801636%)" offset="0.238281"/><stop stop-opacity="1" stop-color="rgb(89.076233%, 33.639526%, 50.059509%)" offset="0.242187"/><stop stop-opacity="1" stop-color="rgb(88.899231%, 33.631897%, 50.315857%)" offset="0.246094"/><stop stop-opacity="1" stop-color="rgb(88.723755%, 33.624268%, 50.57373%)" offset="0.25"/><stop stop-opacity="1" stop-color="rgb(88.546753%, 33.616638%, 50.831604%)" offset="0.253906"/><stop stop-opacity="1" stop-color="rgb(88.371277%, 33.609009%, 51.089478%)" offset="0.257812"/><stop stop-opacity="1" stop-color="rgb(88.194275%, 33.601379%, 51.345825%)" offset="0.261719"/><stop stop-opacity="1" stop-color="rgb(88.018799%, 33.595276%, 51.603699%)" offset="0.265625"/><stop stop-opacity="1" stop-color="rgb(87.843323%, 33.587646%, 51.861572%)" offset="0.269531"/><stop stop-opacity="1" stop-color="rgb(87.667847%, 33.580017%, 52.119446%)" offset="0.273438"/><stop stop-opacity="1" stop-color="rgb(87.490845%, 33.572388%, 52.375793%)" offset="0.277344"/><stop stop-opacity="1" stop-color="rgb(87.315369%, 33.564758%, 52.633667%)" offset="0.28125"/><stop stop-opacity="1" stop-color="rgb(87.138367%, 33.557129%, 52.890015%)" offset="0.285156"/><stop stop-opacity="1" stop-color="rgb(86.962891%, 33.5495%, 53.147888%)" offset="0.289062"/><stop stop-opacity="1" stop-color="rgb(86.785889%, 33.54187%, 53.405762%)" offset="0.292969"/><stop stop-opacity="1" stop-color="rgb(86.610413%, 33.535767%, 53.663635%)" offset="0.296875"/><stop stop-opacity="1" stop-color="rgb(86.433411%, 33.528137%, 53.919983%)" offset="0.300781"/><stop stop-opacity="1" stop-color="rgb(86.257935%, 33.520508%, 54.177856%)" offset="0.304688"/><stop stop-opacity="1" stop-color="rgb(86.080933%, 33.512878%, 54.43573%)" offset="0.308594"/><stop stop-opacity="1" stop-color="rgb(85.905457%, 33.505249%, 54.693604%)" offset="0.3125"/><stop stop-opacity="1" stop-color="rgb(85.728455%, 33.49762%, 54.949951%)" offset="0.316406"/><stop stop-opacity="1" stop-color="rgb(85.552979%, 33.48999%, 55.207825%)" offset="0.320312"/><stop stop-opacity="1" stop-color="rgb(85.375977%, 33.482361%, 55.464172%)" offset="0.324219"/><stop stop-opacity="1" stop-color="rgb(85.2005%, 33.476257%, 55.722046%)" offset="0.328125"/><stop stop-opacity="1" stop-color="rgb(85.023499%, 33.468628%, 55.979919%)" offset="0.332031"/><stop stop-opacity="1" stop-color="rgb(84.848022%, 33.460999%, 56.237793%)" offset="0.335938"/><stop stop-opacity="1" stop-color="rgb(84.671021%, 33.453369%, 56.494141%)" offset="0.339844"/><stop stop-opacity="1" stop-color="rgb(84.495544%, 33.44574%, 56.752014%)" offset="0.34375"/><stop stop-opacity="1" stop-color="rgb(84.318542%, 33.43811%, 57.009888%)" offset="0.347656"/><stop stop-opacity="1" stop-color="rgb(84.143066%, 33.432007%, 57.267761%)" offset="0.351562"/><stop stop-opacity="1" stop-color="rgb(83.96759%, 33.424377%, 57.524109%)" offset="0.355469"/><stop stop-opacity="1" stop-color="rgb(83.792114%, 33.416748%, 57.781982%)" offset="0.359375"/><stop stop-opacity="1" stop-color="rgb(83.615112%, 33.409119%, 58.03833%)" offset="0.363281"/><stop stop-opacity="1" stop-color="rgb(83.439636%, 33.401489%, 58.296204%)" offset="0.367188"/><stop stop-opacity="1" stop-color="rgb(83.262634%, 33.39386%, 58.554077%)" offset="0.371094"/><stop stop-opacity="1" stop-color="rgb(83.087158%, 33.38623%, 58.811951%)" offset="0.375"/><stop stop-opacity="1" stop-color="rgb(82.910156%, 33.378601%, 59.068298%)" offset="0.378906"/><stop stop-opacity="1" stop-color="rgb(82.73468%, 33.372498%, 59.326172%)" offset="0.382812"/><stop stop-opacity="1" stop-color="rgb(82.557678%, 33.364868%, 59.584045%)" offset="0.386719"/><stop stop-opacity="1" stop-color="rgb(82.382202%, 33.357239%, 59.841919%)" offset="0.390625"/><stop stop-opacity="1" stop-color="rgb(82.2052%, 33.349609%, 60.098267%)" offset="0.394531"/><stop stop-opacity="1" stop-color="rgb(82.029724%, 33.34198%, 60.35614%)" offset="0.398438"/><stop stop-opacity="1" stop-color="rgb(81.852722%, 33.334351%, 60.612488%)" offset="0.402344"/><stop stop-opacity="1" stop-color="rgb(81.677246%, 33.326721%, 60.870361%)" offset="0.40625"/><stop stop-opacity="1" stop-color="rgb(81.500244%, 33.319092%, 61.128235%)" offset="0.410156"/><stop stop-opacity="1" stop-color="rgb(81.324768%, 33.312988%, 61.386108%)" offset="0.414062"/><stop stop-opacity="1" stop-color="rgb(81.147766%, 33.305359%, 61.642456%)" offset="0.417969"/><stop stop-opacity="1" stop-color="rgb(80.97229%, 33.297729%, 61.90033%)" offset="0.421875"/><stop stop-opacity="1" stop-color="rgb(80.795288%, 33.2901%, 62.158203%)" offset="0.425781"/><stop stop-opacity="1" stop-color="rgb(80.619812%, 33.282471%, 62.416077%)" offset="0.429688"/><stop stop-opacity="1" stop-color="rgb(80.44281%, 33.274841%, 62.672424%)" offset="0.433594"/><stop stop-opacity="1" stop-color="rgb(80.267334%, 33.268738%, 62.930298%)" offset="0.4375"/><stop stop-opacity="1" stop-color="rgb(80.091858%, 33.261108%, 63.188171%)" offset="0.441406"/><stop stop-opacity="1" stop-color="rgb(79.916382%, 33.253479%, 63.446045%)" offset="0.445312"/><stop stop-opacity="1" stop-color="rgb(79.73938%, 33.24585%, 63.702393%)" offset="0.449219"/><stop stop-opacity="1" stop-color="rgb(79.563904%, 33.23822%, 63.960266%)" offset="0.453125"/><stop stop-opacity="1" stop-color="rgb(79.386902%, 33.230591%, 64.216614%)" offset="0.457031"/><stop stop-opacity="1" stop-color="rgb(79.211426%, 33.222961%, 64.474487%)" offset="0.460937"/><stop stop-opacity="1" stop-color="rgb(79.034424%, 33.215332%, 64.732361%)" offset="0.464844"/><stop stop-opacity="1" stop-color="rgb(78.858948%, 33.209229%, 64.990234%)" offset="0.46875"/><stop stop-opacity="1" stop-color="rgb(78.681946%, 33.201599%, 65.246582%)" offset="0.472656"/><stop stop-opacity="1" stop-color="rgb(78.50647%, 33.19397%, 65.504456%)" offset="0.476562"/><stop stop-opacity="1" stop-color="rgb(78.329468%, 33.18634%, 65.762329%)" offset="0.480469"/><stop stop-opacity="1" stop-color="rgb(78.153992%, 33.178711%, 66.020203%)" offset="0.484375"/><stop stop-opacity="1" stop-color="rgb(77.97699%, 33.171082%, 66.27655%)" offset="0.488281"/><stop stop-opacity="1" stop-color="rgb(77.801514%, 33.163452%, 66.534424%)" offset="0.492187"/><stop stop-opacity="1" stop-color="rgb(77.624512%, 33.155823%, 66.790771%)" offset="0.496094"/><stop stop-opacity="1" stop-color="rgb(77.449036%, 33.149719%, 67.048645%)" offset="0.5"/><stop stop-opacity="1" stop-color="rgb(77.272034%, 33.14209%, 67.306519%)" offset="0.503906"/><stop stop-opacity="1" stop-color="rgb(77.096558%, 33.13446%, 67.564392%)" offset="0.507812"/><stop stop-opacity="1" stop-color="rgb(76.919556%, 33.126831%, 67.82074%)" offset="0.511719"/><stop stop-opacity="1" stop-color="rgb(76.74408%, 33.119202%, 68.078613%)" offset="0.515625"/><stop stop-opacity="1" stop-color="rgb(76.567078%, 33.111572%, 68.336487%)" offset="0.519531"/><stop stop-opacity="1" stop-color="rgb(76.391602%, 33.105469%, 68.59436%)" offset="0.523438"/><stop stop-opacity="1" stop-color="rgb(76.2146%, 33.097839%, 68.850708%)" offset="0.527344"/><stop stop-opacity="1" stop-color="rgb(76.039124%, 33.09021%, 69.108582%)" offset="0.53125"/><stop stop-opacity="1" stop-color="rgb(75.863647%, 33.082581%, 69.364929%)" offset="0.535156"/><stop stop-opacity="1" stop-color="rgb(75.688171%, 33.074951%, 69.622803%)" offset="0.539062"/><stop stop-opacity="1" stop-color="rgb(75.511169%, 33.067322%, 69.880676%)" offset="0.542969"/><stop stop-opacity="1" stop-color="rgb(75.335693%, 33.059692%, 70.13855%)" offset="0.546875"/><stop stop-opacity="1" stop-color="rgb(75.158691%, 33.052063%, 70.394897%)" offset="0.550781"/><stop stop-opacity="1" stop-color="rgb(74.983215%, 33.045959%, 70.652771%)" offset="0.554687"/><stop stop-opacity="1" stop-color="rgb(74.806213%, 33.03833%, 70.910645%)" offset="0.558594"/><stop stop-opacity="1" stop-color="rgb(74.630737%, 33.030701%, 71.168518%)" offset="0.5625"/><stop stop-opacity="1" stop-color="rgb(74.453735%, 33.023071%, 71.424866%)" offset="0.566406"/><stop stop-opacity="1" stop-color="rgb(74.278259%, 33.015442%, 71.682739%)" offset="0.570312"/><stop stop-opacity="1" stop-color="rgb(74.101257%, 33.007812%, 71.939087%)" offset="0.574219"/><stop stop-opacity="1" stop-color="rgb(73.925781%, 33.000183%, 72.19696%)" offset="0.578125"/><stop stop-opacity="1" stop-color="rgb(73.748779%, 32.992554%, 72.454834%)" offset="0.582031"/><stop stop-opacity="1" stop-color="rgb(73.573303%, 32.98645%, 72.712708%)" offset="0.585937"/><stop stop-opacity="1" stop-color="rgb(73.396301%, 32.978821%, 72.969055%)" offset="0.589844"/><stop stop-opacity="1" stop-color="rgb(73.220825%, 32.971191%, 73.226929%)" offset="0.59375"/><stop stop-opacity="1" stop-color="rgb(73.043823%, 32.963562%, 73.484802%)" offset="0.597656"/><stop stop-opacity="1" stop-color="rgb(72.868347%, 32.955933%, 73.742676%)" offset="0.601562"/><stop stop-opacity="1" stop-color="rgb(72.691345%, 32.948303%, 73.999023%)" offset="0.605469"/><stop stop-opacity="1" stop-color="rgb(72.515869%, 32.940674%, 74.256897%)" offset="0.609375"/><stop stop-opacity="1" stop-color="rgb(72.338867%, 32.933044%, 74.514771%)" offset="0.613281"/><stop stop-opacity="1" stop-color="rgb(72.163391%, 32.926941%, 74.772644%)" offset="0.617188"/><stop stop-opacity="1" stop-color="rgb(71.987915%, 32.919312%, 75.028992%)" offset="0.621094"/><stop stop-opacity="1" stop-color="rgb(71.812439%, 32.911682%, 75.286865%)" offset="0.625"/><stop stop-opacity="1" stop-color="rgb(71.635437%, 32.904053%, 75.543213%)" offset="0.628906"/><stop stop-opacity="1" stop-color="rgb(71.459961%, 32.896423%, 75.801086%)" offset="0.632812"/><stop stop-opacity="1" stop-color="rgb(71.282959%, 32.888794%, 76.05896%)" offset="0.636719"/><stop stop-opacity="1" stop-color="rgb(71.107483%, 32.88269%, 76.316833%)" offset="0.640625"/><stop stop-opacity="1" stop-color="rgb(70.930481%, 32.875061%, 76.573181%)" offset="0.644531"/><stop stop-opacity="1" stop-color="rgb(70.755005%, 32.867432%, 76.831055%)" offset="0.648438"/><stop stop-opacity="1" stop-color="rgb(70.578003%, 32.859802%, 77.088928%)" offset="0.652344"/><stop stop-opacity="1" stop-color="rgb(70.402527%, 32.852173%, 77.346802%)" offset="0.65625"/><stop stop-opacity="1" stop-color="rgb(70.225525%, 32.844543%, 77.603149%)" offset="0.660156"/><stop stop-opacity="1" stop-color="rgb(70.050049%, 32.836914%, 77.861023%)" offset="0.664063"/><stop stop-opacity="1" stop-color="rgb(69.873047%, 32.829285%, 78.117371%)" offset="0.667969"/><stop stop-opacity="1" stop-color="rgb(69.697571%, 32.823181%, 78.375244%)" offset="0.671875"/><stop stop-opacity="1" stop-color="rgb(69.520569%, 32.815552%, 78.633118%)" offset="0.675781"/><stop stop-opacity="1" stop-color="rgb(69.345093%, 32.807922%, 78.890991%)" offset="0.679687"/><stop stop-opacity="1" stop-color="rgb(69.168091%, 32.800293%, 79.147339%)" offset="0.683594"/><stop stop-opacity="1" stop-color="rgb(68.992615%, 32.792664%, 79.405212%)" offset="0.6875"/><stop stop-opacity="1" stop-color="rgb(68.815613%, 32.785034%, 79.663086%)" offset="0.691406"/><stop stop-opacity="1" stop-color="rgb(68.640137%, 32.777405%, 79.920959%)" offset="0.695312"/><stop stop-opacity="1" stop-color="rgb(68.463135%, 32.769775%, 80.177307%)" offset="0.699219"/><stop stop-opacity="1" stop-color="rgb(68.287659%, 32.763672%, 80.435181%)" offset="0.703125"/><stop stop-opacity="1" stop-color="rgb(68.112183%, 32.756042%, 80.691528%)" offset="0.707031"/><stop stop-opacity="1" stop-color="rgb(67.936707%, 32.748413%, 80.949402%)" offset="0.710937"/><stop stop-opacity="1" stop-color="rgb(67.759705%, 32.740784%, 81.207275%)" offset="0.714844"/><stop stop-opacity="1" stop-color="rgb(67.584229%, 32.733154%, 81.465149%)" offset="0.71875"/><stop stop-opacity="1" stop-color="rgb(67.407227%, 32.725525%, 81.721497%)" offset="0.722656"/><stop stop-opacity="1" stop-color="rgb(67.23175%, 32.719421%, 81.97937%)" offset="0.726562"/><stop stop-opacity="1" stop-color="rgb(67.054749%, 32.711792%, 82.237244%)" offset="0.730469"/><stop stop-opacity="1" stop-color="rgb(66.879272%, 32.704163%, 82.495117%)" offset="0.734375"/><stop stop-opacity="1" stop-color="rgb(66.702271%, 32.696533%, 82.751465%)" offset="0.738281"/><stop stop-opacity="1" stop-color="rgb(66.526794%, 32.688904%, 83.009338%)" offset="0.742188"/><stop stop-opacity="1" stop-color="rgb(66.349792%, 32.681274%, 83.265686%)" offset="0.746094"/><stop stop-opacity="1" stop-color="rgb(66.174316%, 32.673645%, 83.52356%)" offset="0.75"/><stop stop-opacity="1" stop-color="rgb(65.997314%, 32.666016%, 83.781433%)" offset="0.753906"/><stop stop-opacity="1" stop-color="rgb(65.821838%, 32.659912%, 84.039307%)" offset="0.757812"/><stop stop-opacity="1" stop-color="rgb(65.644836%, 32.652283%, 84.295654%)" offset="0.761719"/><stop stop-opacity="1" stop-color="rgb(65.46936%, 32.644653%, 84.553528%)" offset="0.765625"/><stop stop-opacity="1" stop-color="rgb(65.292358%, 32.637024%, 84.811401%)" offset="0.769531"/><stop stop-opacity="1" stop-color="rgb(65.116882%, 32.629395%, 85.069275%)" offset="0.773438"/><stop stop-opacity="1" stop-color="rgb(64.93988%, 32.621765%, 85.325623%)" offset="0.777344"/><stop stop-opacity="1" stop-color="rgb(64.764404%, 32.614136%, 85.583496%)" offset="0.78125"/><stop stop-opacity="1" stop-color="rgb(64.587402%, 32.606506%, 85.839844%)" offset="0.785156"/><stop stop-opacity="1" stop-color="rgb(64.411926%, 32.600403%, 86.097717%)" offset="0.789063"/><stop stop-opacity="1" stop-color="rgb(64.234924%, 32.592773%, 86.355591%)" offset="0.792969"/><stop stop-opacity="1" stop-color="rgb(64.059448%, 32.585144%, 86.613464%)" offset="0.796875"/><stop stop-opacity="1" stop-color="rgb(63.883972%, 32.577515%, 86.869812%)" offset="0.800781"/><stop stop-opacity="1" stop-color="rgb(63.708496%, 32.569885%, 87.127686%)" offset="0.804687"/><stop stop-opacity="1" stop-color="rgb(63.531494%, 32.562256%, 87.385559%)" offset="0.808594"/><stop stop-opacity="1" stop-color="rgb(63.356018%, 32.556152%, 87.643433%)" offset="0.8125"/><stop stop-opacity="1" stop-color="rgb(63.179016%, 32.548523%, 87.89978%)" offset="0.816406"/><stop stop-opacity="1" stop-color="rgb(63.00354%, 32.540894%, 88.157654%)" offset="0.820312"/><stop stop-opacity="1" stop-color="rgb(62.826538%, 32.533264%, 88.415527%)" offset="0.824219"/><stop stop-opacity="1" stop-color="rgb(62.651062%, 32.525635%, 88.673401%)" offset="0.828125"/><stop stop-opacity="1" stop-color="rgb(62.47406%, 32.518005%, 88.929749%)" offset="0.832031"/><stop stop-opacity="1" stop-color="rgb(62.298584%, 32.510376%, 89.187622%)" offset="0.835937"/><stop stop-opacity="1" stop-color="rgb(62.121582%, 32.502747%, 89.44397%)" offset="0.839844"/><stop stop-opacity="1" stop-color="rgb(61.946106%, 32.496643%, 89.701843%)" offset="0.84375"/><stop stop-opacity="1" stop-color="rgb(61.769104%, 32.489014%, 89.959717%)" offset="0.847656"/><stop stop-opacity="1" stop-color="rgb(61.593628%, 32.481384%, 90.21759%)" offset="0.851562"/><stop stop-opacity="1" stop-color="rgb(61.416626%, 32.473755%, 90.473938%)" offset="0.855469"/><stop stop-opacity="1" stop-color="rgb(61.24115%, 32.466125%, 90.731812%)" offset="0.859375"/><stop stop-opacity="1" stop-color="rgb(61.064148%, 32.458496%, 90.989685%)" offset="0.863281"/><stop stop-opacity="1" stop-color="rgb(60.888672%, 32.450867%, 91.247559%)" offset="0.867188"/><stop stop-opacity="1" stop-color="rgb(60.71167%, 32.443237%, 91.503906%)" offset="0.871094"/><stop stop-opacity="1" stop-color="rgb(60.536194%, 32.437134%, 91.76178%)" offset="0.875"/><stop stop-opacity="1" stop-color="rgb(60.359192%, 32.429504%, 92.018127%)" offset="0.878906"/><stop stop-opacity="1" stop-color="rgb(60.183716%, 32.421875%, 92.276001%)" offset="0.882812"/><stop stop-opacity="1" stop-color="rgb(60.00824%, 32.414246%, 92.533875%)" offset="0.886719"/><stop stop-opacity="1" stop-color="rgb(59.832764%, 32.406616%, 92.791748%)" offset="0.890625"/><stop stop-opacity="1" stop-color="rgb(59.655762%, 32.398987%, 93.048096%)" offset="0.894531"/><stop stop-opacity="1" stop-color="rgb(59.480286%, 32.392883%, 93.305969%)" offset="0.898438"/><stop stop-opacity="1" stop-color="rgb(59.303284%, 32.385254%, 93.563843%)" offset="0.902344"/><stop stop-opacity="1" stop-color="rgb(59.127808%, 32.377625%, 93.821716%)" offset="0.90625"/><stop stop-opacity="1" stop-color="rgb(58.950806%, 32.369995%, 94.078064%)" offset="0.910156"/><stop stop-opacity="1" stop-color="rgb(58.77533%, 32.362366%, 94.335938%)" offset="0.914063"/><stop stop-opacity="1" stop-color="rgb(58.598328%, 32.354736%, 94.592285%)" offset="0.917969"/><stop stop-opacity="1" stop-color="rgb(58.422852%, 32.347107%, 94.850159%)" offset="0.921875"/><stop stop-opacity="1" stop-color="rgb(58.24585%, 32.339478%, 95.108032%)" offset="0.925781"/><stop stop-opacity="1" stop-color="rgb(58.070374%, 32.333374%, 95.365906%)" offset="0.929688"/><stop stop-opacity="1" stop-color="rgb(57.893372%, 32.325745%, 95.622253%)" offset="0.933594"/><stop stop-opacity="1" stop-color="rgb(57.717896%, 32.318115%, 95.880127%)" offset="0.9375"/><stop stop-opacity="1" stop-color="rgb(57.540894%, 32.310486%, 96.138%)" offset="0.941406"/><stop stop-opacity="1" stop-color="rgb(57.365417%, 32.302856%, 96.395874%)" offset="0.945312"/><stop stop-opacity="1" stop-color="rgb(57.188416%, 32.295227%, 96.652222%)" offset="0.949219"/><stop stop-opacity="1" stop-color="rgb(57.012939%, 32.287598%, 96.910095%)" offset="0.953125"/><stop stop-opacity="1" stop-color="rgb(56.835938%, 32.279968%, 97.166443%)" offset="0.957031"/><stop stop-opacity="1" stop-color="rgb(56.660461%, 32.273865%, 97.424316%)" offset="0.960937"/><stop stop-opacity="1" stop-color="rgb(56.483459%, 32.266235%, 97.68219%)" offset="0.964844"/><stop stop-opacity="1" stop-color="rgb(56.307983%, 32.258606%, 97.940063%)" offset="0.96875"/><stop stop-opacity="1" stop-color="rgb(56.132507%, 32.250977%, 98.196411%)" offset="0.972656"/><stop stop-opacity="1" stop-color="rgb(55.957031%, 32.243347%, 98.454285%)" offset="0.976562"/><stop stop-opacity="1" stop-color="rgb(55.780029%, 32.235718%, 98.712158%)" offset="0.980469"/><stop stop-opacity="1" stop-color="rgb(55.604553%, 32.229614%, 98.970032%)" offset="0.984375"/><stop stop-opacity="1" stop-color="rgb(55.427551%, 32.221985%, 99.226379%)" offset="0.988281"/><stop stop-opacity="1" stop-color="rgb(55.252075%, 32.214355%, 99.484253%)" offset="0.992188"/><stop stop-opacity="1" stop-color="rgb(55.075073%, 32.206726%, 99.740601%)" offset="0.996094"/><stop stop-opacity="1" stop-color="rgb(54.899597%, 32.199097%, 99.998474%)" offset="1"/></linearGradient><clipPath id="1bd630d5cd"><path d="M 49 139 L 319 139 L 319 449 L 49 449 Z M 49 139 " clip-rule="nonzero"/></clipPath><clipPath id="deac75dbda"><path d="M 165.535156 76.847656 L 391.914062 203.242188 L 226.125 500.183594 L -0.257812 373.789062 Z M 165.535156 76.847656 " clip-rule="nonzero"/></clipPath><clipPath id="6169cffc33"><path d="M 165.464844 76.8125 L 391.847656 203.207031 L 226.054688 500.148438 L -0.324219 373.753906 Z M 165.464844 76.8125 " clip-rule="nonzero"/></clipPath><clipPath id="21224f9dbd"><path d="M 68 271 L 257 271 L 257 428 L 68 428 Z M 68 271 " clip-rule="nonzero"/></clipPath><clipPath id="4765653cd0"><path d="M 165.535156 76.847656 L 391.914062 203.242188 L 226.125 500.183594 L -0.257812 373.789062 Z M 165.535156 76.847656 " clip-rule="nonzero"/></clipPath><clipPath id="03b11a89ff"><path d="M 165.464844 76.8125 L 391.847656 203.207031 L 226.054688 500.148438 L -0.324219 373.753906 Z M 165.464844 76.8125 " clip-rule="nonzero"/></clipPath><clipPath id="fd2dfe648e"><path d="M 87 213 L 286 213 L 286 387 L 87 387 Z M 87 213 " clip-rule="nonzero"/></clipPath><clipPath id="aafe64993b"><path d="M 165.535156 76.847656 L 391.914062 203.242188 L 226.125 500.183594 L -0.257812 373.789062 Z M 165.535156 76.847656 " clip-rule="nonzero"/></clipPath><clipPath id="202302e245"><path d="M 165.464844 76.8125 L 391.847656 203.207031 L 226.054688 500.148438 L -0.324219 373.753906 Z M 165.464844 76.8125 " clip-rule="nonzero"/></clipPath><clipPath id="c7a8eabc17"><path d="M 244 191 L 270 191 L 270 217 L 244 217 Z M 244 191 " clip-rule="nonzero"/></clipPath><clipPath id="b4ce5d527a"><path d="M 165.535156 76.847656 L 391.914062 203.242188 L 226.125 500.183594 L -0.257812 373.789062 Z M 165.535156 76.847656 " clip-rule="nonzero"/></clipPath><clipPath id="17b5216270"><path d="M 165.464844 76.8125 L 391.847656 203.207031 L 226.054688 500.148438 L -0.324219 373.753906 Z M 165.464844 76.8125 " clip-rule="nonzero"/></clipPath><clipPath id="75b9104248"><path d="M 242 162 L 261 162 L 261 181 L 242 181 Z M 242 162 " clip-rule="nonzero"/></clipPath><clipPath id="e3c9ec6392"><path d="M 165.535156 76.847656 L 391.914062 203.242188 L 226.125 500.183594 L -0.257812 373.789062 Z M 165.535156 76.847656 " clip-rule="nonzero"/></clipPath><clipPath id="56f5a0c6b2"><path d="M 165.464844 76.8125 L 391.847656 203.207031 L 226.054688 500.148438 L -0.324219 373.753906 Z M 165.464844 76.8125 " clip-rule="nonzero"/></clipPath><clipPath id="f22b5fc42e"><path d="M 261 147 L 277 147 L 277 163 L 261 163 Z M 261 147 " clip-rule="nonzero"/></clipPath><clipPath id="9452a005b0"><path d="M 165.535156 76.847656 L 391.914062 203.242188 L 226.125 500.183594 L -0.257812 373.789062 Z M 165.535156 76.847656 " clip-rule="nonzero"/></clipPath><clipPath id="96e1f7d467"><path d="M 165.464844 76.8125 L 391.847656 203.207031 L 226.054688 500.148438 L -0.324219 373.753906 Z M 165.464844 76.8125 " clip-rule="nonzero"/></clipPath><clipPath id="72ec6e8a45"><path d="M 253 130 L 266 130 L 266 142 L 253 142 Z M 253 130 " clip-rule="nonzero"/></clipPath><clipPath id="e01f1279f5"><path d="M 165.535156 76.847656 L 391.914062 203.242188 L 226.125 500.183594 L -0.257812 373.789062 Z M 165.535156 76.847656 " clip-rule="nonzero"/></clipPath><clipPath id="a1206b32eb"><path d="M 165.464844 76.8125 L 391.847656 203.207031 L 226.054688 500.148438 L -0.324219 373.753906 Z M 165.464844 76.8125 " clip-rule="nonzero"/></clipPath></defs><g clip-path="url(#ec17077560)"><g clip-path="url(#b684c0f589)"><path fill="url(#2b163e54c5)" d="M 27.480469 164.101562 L 27.480469 467.320312 L 330.699219 467.320312 L 330.699219 164.101562 Z M 27.480469 164.101562 " fill-rule="nonzero"/></g></g><g clip-path="url(#1bd630d5cd)"><g clip-path="url(#deac75dbda)"><g clip-path="url(#6169cffc33)"><path fill="#ffffff" d="M 276.871094 233.507812 C 311.691406 273.582031 319.527344 332.691406 292.1875 381.660156 C 257.3125 444.125 178.339844 466.492188 115.820312 431.585938 C 53.34375 396.703125 30.949219 317.738281 65.824219 255.277344 C 93.164062 206.304688 147.597656 181.964844 199.980469 190.578125 L 210.3125 172.074219 L 200.910156 166.828125 C 193.953125 162.941406 191.425781 154.140625 195.304688 147.191406 C 199.164062 140.277344 208.003906 137.78125 214.960938 141.664062 L 243.78125 157.753906 C 241.339844 159.109375 239.167969 161.152344 237.710938 163.757812 C 233.53125 171.25 236.242188 180.695312 243.695312 184.855469 C 245.058594 185.617188 246.433594 186.171875 247.882812 186.492188 C 244.363281 188.21875 241.355469 190.992188 239.300781 194.675781 C 233.914062 204.316406 237.371094 216.511719 247.019531 221.894531 C 256.664062 227.28125 268.816406 223.804688 274.199219 214.160156 C 279.585938 204.519531 276.167969 192.347656 266.523438 186.964844 C 264.203125 185.667969 261.753906 184.898438 259.328125 184.574219 C 261.535156 183.253906 263.421875 181.324219 264.785156 178.882812 C 266.238281 176.273438 266.878906 173.375 266.753906 170.589844 L 310.683594 195.117188 C 317.597656 198.976562 320.097656 207.816406 316.242188 214.722656 C 312.359375 221.679688 303.542969 224.136719 296.585938 220.25 L 287.1875 215.003906 L 276.859375 233.5 Z M 150.726562 316.253906 C 172.050781 328.160156 179.699219 355.128906 167.796875 376.449219 C 155.894531 397.769531 128.949219 405.359375 107.625 393.453125 C 86.296875 381.546875 78.675781 354.648438 90.574219 333.332031 C 102.476562 312.019531 129.402344 304.347656 150.726562 316.253906 Z M 150.726562 316.253906 " fill-opacity="1" fill-rule="evenodd"/></g></g></g><g clip-path="url(#21224f9dbd)"><g clip-path="url(#4765653cd0)"><g clip-path="url(#03b11a89ff)"><path fill="#ffbd59" d="M 77.546875 271.925781 C 55.648438 323.988281 75.9375 385.320312 126.410156 413.5 C 169.429688 437.519531 221.390625 430.261719 256.132812 399.164062 C 227.078125 393.3125 193.640625 375.78125 172.722656 335.8125 C 148.339844 289.292969 105.082031 275.726562 77.546875 271.925781 Z M 104.222656 360.332031 C 108.65625 362.804688 110.242188 368.417969 107.773438 372.84375 C 105.296875 377.273438 99.6875 378.859375 95.261719 376.386719 C 90.828125 373.914062 89.242188 368.300781 91.710938 363.875 C 94.183594 359.453125 99.792969 357.859375 104.222656 360.332031 Z M 152.710938 366.394531 C 158.171875 369.445312 160.089844 376.328125 157.0625 381.75 C 154.015625 387.214844 147.171875 389.152344 141.707031 386.101562 C 136.285156 383.074219 134.34375 376.230469 137.394531 370.769531 C 140.425781 365.339844 147.285156 363.367188 152.710938 366.394531 Z M 149.457031 318.910156 C 156.992188 323.117188 159.683594 332.601562 155.476562 340.136719 C 151.269531 347.667969 141.761719 350.394531 134.226562 346.1875 C 126.691406 341.980469 123.984375 332.433594 128.191406 324.902344 C 132.394531 317.367188 141.921875 314.703125 149.457031 318.910156 Z M 149.457031 318.910156 " fill-opacity="1" fill-rule="evenodd"/><path fill="#ff914d" d="M 77.546875 271.925781 C 55.648438 323.988281 75.9375 385.320312 126.410156 413.5 C 169.429688 437.519531 221.390625 430.261719 256.132812 399.164062 C 117.359375 439.34375 103.285156 330.980469 104.308594 278.179688 C 94.644531 274.953125 85.460938 273.03125 77.546875 271.925781 Z M 104.222656 360.332031 C 108.65625 362.804688 110.242188 368.417969 107.773438 372.84375 C 105.296875 377.273438 99.6875 378.859375 95.261719 376.386719 C 90.828125 373.914062 89.242188 368.300781 91.710938 363.875 C 94.183594 359.453125 99.792969 357.859375 104.222656 360.332031 Z M 104.222656 360.332031 " fill-opacity="1" fill-rule="evenodd"/></g></g></g><g clip-path="url(#fd2dfe648e)"><g clip-path="url(#aafe64993b)"><g clip-path="url(#202302e245)"><path fill="#ffbd59" d="M 87.023438 259.726562 C 98.363281 235.429688 130.054688 213.488281 140.011719 251.792969 C 138.332031 252.757812 136.929688 254.203125 135.914062 256.019531 C 132.863281 261.484375 134.820312 268.386719 140.285156 271.4375 C 145.75 274.488281 152.65625 272.535156 155.707031 267.070312 C 158.753906 261.609375 156.796875 254.703125 151.332031 251.652344 C 150.707031 251.304688 150.109375 251.023438 149.464844 250.820312 C 147.65625 242.480469 142.988281 235.964844 138.214844 231.183594 C 154.71875 205.703125 190.980469 209.4375 204.660156 230.273438 C 200.621094 236.917969 197.066406 246.015625 195.445312 258.355469 C 192.859375 259.191406 190.589844 261.019531 189.160156 263.585938 C 186.109375 269.050781 188.066406 275.953125 193.53125 279.003906 C 198.996094 282.054688 205.902344 280.101562 208.949219 274.636719 C 211.976562 269.214844 210.125 262.421875 204.851562 259.316406 C 212.855469 198.578125 263.800781 244.394531 262.125 264.039062 C 256.300781 264.152344 249.371094 265.390625 242.566406 269.300781 C 237.203125 266.851562 230.804688 268.867188 227.890625 274.085938 C 224.84375 279.546875 226.800781 286.453125 232.265625 289.503906 C 237.730469 292.554688 244.675781 290.621094 247.726562 285.160156 C 249.230469 282.464844 249.511719 279.425781 248.769531 276.671875 C 278.246094 261.90625 295.84375 302.679688 279.464844 325.683594 C 272.964844 322.925781 262.566406 319.179688 253.039062 318.636719 C 252.179688 316.09375 250.386719 313.847656 247.863281 312.4375 C 242.398438 309.386719 235.492188 311.34375 232.441406 316.804688 C 229.394531 322.269531 231.328125 329.214844 236.792969 332.265625 C 242.214844 335.292969 249.058594 333.355469 252.167969 327.980469 C 291.589844 329.847656 282.8125 364.144531 263.21875 386.003906 C 203.460938 376.691406 199.707031 338.761719 171.34375 306.6875 C 151.980469 284.8125 126.285156 266.933594 87.023438 259.726562 Z M 237.972656 319.902344 C 239.316406 317.5 242.351562 316.640625 244.753906 317.980469 C 247.15625 319.324219 248.015625 322.355469 246.675781 324.757812 C 245.332031 327.160156 242.300781 328.019531 239.894531 326.679688 C 237.496094 325.332031 236.632812 322.304688 237.972656 319.902344 Z M 233.421875 277.183594 C 234.765625 274.78125 237.800781 273.921875 240.203125 275.261719 C 242.605469 276.601562 243.464844 279.636719 242.125 282.039062 C 240.78125 284.441406 237.75 285.300781 235.34375 283.960938 C 232.945312 282.613281 232.085938 279.578125 233.421875 277.183594 Z M 194.695312 266.683594 C 196.035156 264.285156 199.070312 263.425781 201.472656 264.765625 C 203.875 266.105469 204.738281 269.140625 203.394531 271.542969 C 202.054688 273.945312 199.019531 274.804688 196.617188 273.464844 C 194.214844 272.121094 193.355469 269.085938 194.695312 266.683594 Z M 141.457031 259.117188 C 142.800781 256.714844 145.835938 255.855469 148.238281 257.195312 C 150.640625 258.539062 151.5 261.574219 150.160156 263.972656 C 148.820312 266.375 145.785156 267.234375 143.382812 265.894531 C 140.976562 264.554688 140.117188 261.519531 141.457031 259.117188 Z M 141.457031 259.117188 " fill-opacity="1" fill-rule="evenodd"/></g></g></g><g clip-path="url(#c7a8eabc17)"><g clip-path="url(#b4ce5d527a)"><g clip-path="url(#17b5216270)"><path fill="#ffbd59" d="M 262.894531 193.457031 C 268.945312 196.835938 271.074219 204.484375 267.699219 210.53125 C 264.324219 216.578125 256.6875 218.773438 250.644531 215.402344 C 244.554688 212.003906 242.417969 204.347656 245.796875 198.300781 C 249.171875 192.257812 256.808594 190.058594 262.894531 193.457031 Z M 262.894531 193.457031 " fill-opacity="1" fill-rule="evenodd"/></g></g></g><g clip-path="url(#75b9104248)"><g clip-path="url(#e3c9ec6392)"><g clip-path="url(#56f5a0c6b2)"><path fill="#ffbd59" d="M 255.597656 163.535156 C 259.902344 165.9375 261.417969 171.402344 259.039062 175.664062 C 256.636719 179.96875 251.21875 181.507812 246.90625 179.101562 C 242.597656 176.695312 241.0625 171.28125 243.46875 166.972656 C 245.851562 162.703125 251.289062 161.128906 255.597656 163.535156 Z M 255.597656 163.535156 " fill-opacity="1" fill-rule="evenodd"/></g></g></g><g clip-path="url(#f22b5fc42e)"><g clip-path="url(#9452a005b0)"><g clip-path="url(#96e1f7d467)"><path fill="#ffbd59" d="M 272.5625 148.519531 C 276.128906 150.511719 277.40625 155.027344 275.417969 158.589844 C 273.40625 162.191406 268.890625 163.46875 265.328125 161.480469 C 261.765625 159.492188 260.484375 154.976562 262.496094 151.375 C 264.484375 147.8125 269 146.53125 272.5625 148.519531 Z M 272.5625 148.519531 " fill-opacity="1" fill-rule="evenodd"/></g></g></g><g clip-path="url(#72ec6e8a45)"><g clip-path="url(#e01f1279f5)"><g clip-path="url(#a1206b32eb)"><path fill="#ffbd59" d="M 262.132812 130.914062 C 264.988281 132.507812 265.992188 136.058594 264.398438 138.90625 C 262.828125 141.722656 259.253906 142.765625 256.402344 141.171875 C 253.585938 139.601562 252.566406 135.988281 254.136719 133.175781 C 255.726562 130.328125 259.316406 129.339844 262.132812 130.914062 Z M 262.132812 130.914062 " fill-opacity="1" fill-rule="evenodd"/></g></g></g><g fill="#ffffff" fill-opacity="1"><g transform="translate(351.945232, 342.344963)"><g><path d="M 53.46875 -47.828125 L 53.46875 -58.097656 L 1.601562 -58.097656 L 1.601562 -47.828125 L 20.964844 -47.828125 L 20.964844 0 L 34.101562 0 L 34.101562 -47.828125 Z M 53.46875 -47.828125 "/></g></g></g><g fill="#ffffff" fill-opacity="1"><g transform="translate(404.733002, 342.344963)"><g><path d="M 58.941406 -58.097656 L 45.804688 -58.097656 L 45.804688 -33.679688 L 20.375 -33.679688 L 20.375 -58.097656 L 7.15625 -58.097656 L 7.15625 0 L 20.375 0 L 20.375 -23.324219 L 45.804688 -23.324219 L 45.804688 0 L 58.941406 0 Z M 58.941406 -58.097656 "/></g></g></g><g fill="#ffffff" fill-opacity="1"><g transform="translate(468.718179, 342.344963)"><g><path d="M 33.597656 -59.277344 C 15.578125 -59.277344 4.378906 -47.488281 4.378906 -29.050781 C 4.378906 -10.695312 15.578125 1.179688 33.597656 1.179688 C 51.53125 1.179688 62.730469 -10.695312 62.730469 -29.050781 C 62.730469 -47.488281 51.53125 -59.277344 33.597656 -59.277344 Z M 33.597656 -8.589844 C 23.914062 -8.589844 18.019531 -16.082031 18.019531 -29.050781 C 18.019531 -42.101562 23.914062 -49.511719 33.597656 -49.511719 C 43.195312 -49.511719 49.089844 -42.101562 49.089844 -29.050781 C 49.089844 -16.082031 43.195312 -8.589844 33.597656 -8.589844 Z M 33.597656 -8.589844 "/></g></g></g><g fill="#ffffff" fill-opacity="1"><g transform="translate(533.966228, 342.344963)"><g><path d="M 55.824219 -58.097656 L 42.691406 -58.097656 L 42.691406 -22.566406 C 42.691406 -20.964844 42.691406 -19.871094 42.523438 -18.691406 C 42.101562 -12.378906 38.3125 -8.589844 31.070312 -8.589844 C 23.828125 -8.589844 20.039062 -12.378906 19.535156 -18.691406 C 19.449219 -19.871094 19.449219 -20.964844 19.449219 -22.566406 L 19.449219 -58.097656 L 6.316406 -58.097656 L 6.316406 -24.503906 C 6.316406 -21.808594 6.316406 -20.125 6.484375 -17.09375 C 7.242188 -7.324219 14.0625 1.179688 31.070312 1.179688 C 48.078125 1.179688 54.898438 -7.324219 55.574219 -17.09375 C 55.824219 -20.125 55.824219 -21.808594 55.824219 -24.503906 Z M 55.824219 -58.097656 "/></g></g></g><g fill="#ffffff" fill-opacity="1"><g transform="translate(593.657658, 342.344963)"><g><path d="M 34.269531 -30.226562 L 34.269531 -19.957031 L 46.058594 -19.957031 C 44.542969 -12.546875 39.828125 -8.589844 33.089844 -8.589844 C 24.839844 -8.589844 18.273438 -14.902344 18.273438 -29.46875 C 18.273438 -42.351562 24.753906 -49.511719 33.257812 -49.511719 C 40.332031 -49.511719 44.457031 -45.890625 45.804688 -39.152344 L 45.972656 -38.3125 L 59.109375 -38.3125 L 59.023438 -39.152344 C 57.847656 -50.605469 49.59375 -59.277344 33.429688 -59.277344 C 17.34375 -59.277344 4.378906 -48.246094 4.378906 -28.710938 C 4.378906 -9.765625 14.902344 1.179688 30.734375 1.179688 C 37.046875 1.179688 41.257812 -0.0859375 44.542969 -3.117188 L 47.152344 -9.179688 L 48.164062 0 L 58.605469 0 L 58.605469 -30.226562 Z M 34.269531 -30.226562 "/></g></g></g><g fill="#ffffff" fill-opacity="1"><g transform="translate(656.548356, 342.344963)"><g><path d="M 58.941406 -58.097656 L 45.804688 -58.097656 L 45.804688 -33.679688 L 20.375 -33.679688 L 20.375 -58.097656 L 7.15625 -58.097656 L 7.15625 0 L 20.375 0 L 20.375 -23.324219 L 45.804688 -23.324219 L 45.804688 0 L 58.941406 0 Z M 58.941406 -58.097656 "/></g></g></g><g fill="#ffffff" fill-opacity="1"><g transform="translate(720.533532, 342.344963)"><g><path d="M 53.46875 -47.828125 L 53.46875 -58.097656 L 1.601562 -58.097656 L 1.601562 -47.828125 L 20.964844 -47.828125 L 20.964844 0 L 34.101562 0 L 34.101562 -47.828125 Z M 53.46875 -47.828125 "/></g></g></g><g fill="#ffffff" fill-opacity="1"><g transform="translate(773.321302, 342.344963)"><g/></g></g><g fill="#ffffff" fill-opacity="1"><g transform="translate(788.980848, 342.344963)"><g><path d="M 50.269531 -11.113281 L 20.375 -11.113281 L 20.375 -58.097656 L 7.15625 -58.097656 L 7.15625 0 L 50.269531 0 Z M 50.269531 -11.113281 "/></g></g></g><g fill="#ffffff" fill-opacity="1"><g transform="translate(840.75831, 342.344963)"><g><path d="M 39.238281 -16.417969 L 44.542969 0 L 58.855469 0 L 38.144531 -58.097656 L 21.808594 -58.097656 L 0.84375 0 L 14.902344 0 L 20.292969 -16.417969 Z M 29.808594 -46.648438 L 35.953125 -26.777344 L 23.578125 -26.777344 Z M 29.808594 -46.648438 "/></g></g></g><g fill="#ffffff" fill-opacity="1"><g transform="translate(898.850131, 342.344963)"><g><path d="M 42.773438 -31.40625 C 48.585938 -33.429688 51.617188 -37.46875 51.617188 -43.109375 C 51.617188 -50.859375 46.226562 -56.582031 36.796875 -57.761719 C 33.847656 -58.097656 32.332031 -58.097656 29.300781 -58.097656 L 7.15625 -58.097656 L 7.15625 0 L 29.21875 0 C 32.671875 0 34.605469 0 37.46875 -0.335938 C 45.300781 -1.347656 53.71875 -6.652344 53.71875 -17.429688 C 53.71875 -24.753906 50.183594 -29.46875 42.773438 -31.40625 Z M 20.375 -47.828125 L 28.039062 -47.828125 C 29.386719 -47.828125 30.902344 -47.742188 32.082031 -47.574219 C 35.53125 -47.070312 37.804688 -45.214844 37.804688 -41.34375 C 37.804688 -37.46875 35.785156 -35.53125 32.164062 -34.945312 C 30.984375 -34.773438 29.640625 -34.691406 28.292969 -34.691406 L 20.375 -34.691406 Z M 33.429688 -10.441406 C 32.332031 -10.355469 30.984375 -10.355469 29.640625 -10.355469 L 20.375 -10.355469 L 20.375 -25.007812 L 29.132812 -25.007812 C 30.480469 -25.007812 31.828125 -25.007812 33.175781 -24.839844 C 36.878906 -24.503906 39.910156 -22.3125 39.910156 -17.597656 C 39.910156 -13.21875 36.878906 -10.695312 33.429688 -10.441406 Z M 33.429688 -10.441406 "/></g></g></g><g fill="#ffffff" fill-opacity="1"><g transform="translate(955.08973, 342.344963)"><g><path d="M 26.945312 -59.277344 C 15.660156 -59.277344 5.640625 -52.960938 5.640625 -42.101562 C 5.640625 -30.984375 13.21875 -26.859375 25.679688 -23.746094 C 33.597656 -21.890625 36.289062 -19.113281 36.289062 -15.070312 C 36.289062 -11.113281 32.5 -8.589844 27.703125 -8.589844 C 22.398438 -8.589844 17.765625 -11.453125 16.585938 -17.429688 L 3.285156 -17.429688 C 4.292969 -4.882812 13.726562 1.179688 27.953125 1.179688 C 39.574219 1.179688 50.101562 -4.882812 50.101562 -16.167969 C 50.101562 -25.34375 44.542969 -31.40625 31.742188 -34.4375 C 22.398438 -36.628906 19.449219 -38.984375 19.449219 -43.363281 C 19.449219 -47.574219 22.398438 -49.511719 26.523438 -49.511719 C 32.082031 -49.511719 35.113281 -46.058594 35.785156 -40.667969 L 49.089844 -40.667969 C 47.828125 -51.195312 41.425781 -59.277344 26.945312 -59.277344 Z M 26.945312 -59.277344 "/></g></g></g></svg>