<svg version="1.1" id="Layer_1" xmlns="http://www.w3.org/2000/svg" xmlns:xlink="http://www.w3.org/1999/xlink" x="0px" y="0px"
	 width="100%" viewBox="0 0 231 230" enable-background="new 0 0 231 230" xml:space="preserve">
<path fill="#000000" opacity="1.000000" stroke="none" 
	d="
M232.000000,81.000000 
	C232.000000,131.333328 232.000000,181.166672 232.000000,231.000000 
	C155.000000,231.000000 78.000000,231.000000 1.000000,231.000000 
	C1.000000,154.333328 1.000000,77.666664 1.000000,1.000000 
	C78.000000,1.000000 155.000000,1.000000 232.000000,1.000000 
	C232.000000,27.500000 232.000000,54.000000 232.000000,81.000000 
M60.627674,218.540695 
	C61.067238,218.082321 61.506802,217.623947 62.605572,216.894073 
	C64.018044,214.326584 65.430519,211.759079 67.160492,208.354172 
	C67.439072,206.779938 67.999863,205.196671 67.949806,203.632950 
	C67.654480,194.407959 67.217056,185.187515 66.976349,175.147659 
	C66.929581,173.765945 66.882812,172.384232 66.975082,170.136093 
	C66.925957,168.092285 66.876831,166.048492 66.974220,163.179688 
	C66.928322,161.787964 66.882416,160.396255 66.969597,158.340836 
	C66.926445,157.893723 66.883293,157.446594 66.972183,156.255463 
	C66.926384,155.503815 66.880585,154.752151 66.970047,153.207016 
	C66.924744,152.137650 66.879440,151.068298 66.971405,149.133423 
	C66.923553,147.089828 66.875702,145.046249 66.963501,142.176605 
	C66.918617,140.785233 66.873726,139.393860 66.963524,137.258026 
	C66.919128,136.505554 66.874733,135.753082 66.969307,134.171234 
	C66.928055,132.768326 66.886795,131.365417 66.986595,129.042694 
	C67.073273,122.158218 67.228149,115.273674 67.222191,108.389282 
	C67.218346,103.946930 66.978699,99.504784 66.961479,94.171761 
	C66.916252,91.781364 66.871033,89.390968 66.957901,86.092300 
	C66.913673,82.728317 66.869446,79.364342 66.958000,75.261047 
	C66.993385,74.510887 67.028770,73.760735 67.905334,72.965057 
	C69.639023,72.641273 71.366638,72.080826 73.107483,72.036194 
	C79.406662,71.874718 85.710289,71.886520 92.939140,71.969971 
	C104.940849,71.926582 116.942551,71.883194 129.881638,71.956207 
	C136.572449,71.632607 143.263245,71.309006 150.262680,71.771187 
	C150.839935,70.806831 151.910049,69.847321 151.919571,68.877396 
	C152.037628,56.847427 152.024780,44.815830 151.961700,32.785088 
	C151.956451,31.783018 151.343887,30.784134 151.101746,29.153202 
	C150.748184,28.708712 150.394608,28.264221 149.712936,27.241671 
	C147.412155,25.620810 145.111374,23.999949 142.649246,22.130795 
	C142.649246,22.130795 142.354263,22.169901 141.879456,21.378490 
	C141.403320,21.255560 140.927078,21.024698 140.451050,21.025084 
	C105.984840,21.052980 71.518646,21.099245 36.278194,21.035925 
	C34.839813,21.330023 33.401432,21.624121 31.047596,22.002577 
	C27.906101,22.008673 24.760185,22.124989 21.623978,21.999218 
	C13.718099,21.682177 9.027614,25.199768 7.048154,33.674149 
	C7.079878,34.129635 7.111602,34.585121 7.002165,35.956535 
	C6.711922,44.346939 6.421679,52.737343 6.001881,62.040981 
	C6.055105,94.696907 6.108329,127.352837 6.008147,160.932755 
	C6.002810,175.261169 5.918854,189.590485 6.079906,203.917023 
	C6.103115,205.981644 7.305170,208.032990 7.985754,209.984283 
	C7.985754,209.984283 7.879519,209.960327 8.029617,210.578125 
	C8.322296,211.065140 8.614975,211.552170 9.133142,212.675110 
	C11.357578,214.440369 13.582015,216.205643 16.084463,218.685516 
	C17.696087,219.146179 19.307711,219.606842 21.338680,220.844833 
	C31.389311,220.895584 41.440033,220.982773 51.490471,220.957748 
	C52.995014,220.954010 54.498241,220.424255 56.766953,220.014633 
	C57.949085,219.395508 59.131218,218.776382 60.110535,217.991287 
	C60.110535,217.991287 59.944637,218.194183 60.627674,218.540695 
M114.983505,196.028290 
	C114.934196,187.021515 114.884888,178.014740 114.994118,168.091492 
	C114.994118,164.508286 114.994118,160.925079 114.994118,156.999496 
	C125.982254,156.999496 136.512878,157.048569 147.041809,156.936615 
	C148.339951,156.922836 149.628983,156.050018 151.289261,155.278427 
	C151.480499,154.887558 151.671738,154.496704 151.992432,153.147842 
	C151.997574,140.271851 152.049423,127.395416 151.925598,114.520668 
	C151.914856,113.403275 150.745392,112.297020 149.183701,110.964058 
	C142.764832,110.996117 136.345963,111.028183 129.543015,110.953720 
	C129.543015,110.953720 129.146179,110.991013 128.721130,110.205223 
	C113.782112,110.140434 98.843094,110.062981 83.904030,110.052078 
	C83.229530,110.051590 82.554588,110.653259 81.965973,110.969421 
	C81.965973,110.969421 81.959473,110.883408 81.185539,111.316422 
	C81.179512,126.873238 81.173485,142.430054 81.006310,158.913574 
	C81.053368,175.621078 81.100426,192.328568 80.996849,209.675552 
	C81.353088,210.444382 81.709320,211.213211 82.175194,212.674026 
	C84.442421,218.278366 89.611580,219.603470 94.653320,220.817444 
	C103.602386,222.972275 111.135262,219.102554 114.845032,210.618759 
	C114.843575,206.063660 114.842125,201.508560 114.983505,196.028290 
M166.018036,172.926361 
	C166.063126,181.272049 166.108215,189.617737 166.066696,198.483612 
	C166.102722,198.655670 166.138763,198.827728 166.040680,199.793777 
	C166.086380,200.863419 166.132065,201.933060 166.044113,203.869278 
	C166.089127,205.912506 166.134155,207.955750 166.048416,210.661636 
	C166.068420,211.110672 166.088425,211.559692 166.166733,212.698547 
	C168.265350,216.135803 170.323181,219.623611 175.949524,219.973785 
	C188.281357,219.929321 200.613205,219.884857 213.707382,219.941788 
	C217.950943,218.857941 221.976517,217.441757 224.065491,213.096161 
	C224.065491,213.096161 224.096970,213.120621 224.660599,212.892181 
	C225.085373,212.265442 225.510147,211.638702 225.996597,210.364120 
	C226.282394,209.576920 226.568192,208.789719 226.957809,207.204681 
	C226.907852,206.136520 226.857880,205.068375 226.941650,203.150894 
	C226.896683,201.436249 226.851715,199.721619 226.941162,197.156815 
	C226.894318,195.440445 226.847473,193.724091 226.961792,191.416840 
	C226.968887,191.011368 226.975983,190.605911 227.765961,189.753052 
	C227.787033,154.500793 227.808090,119.248543 227.989227,83.072029 
	C227.990860,68.098892 228.024170,53.125584 227.945297,38.152870 
	C227.937378,36.651115 227.249207,35.152946 226.813751,33.233746 
	C226.615555,33.005573 226.365448,32.885509 226.006302,32.098476 
	C224.629944,26.299000 220.445023,23.525509 214.679794,21.212982 
	C201.069473,21.138958 187.459152,21.051207 173.848770,21.040089 
	C173.292526,21.039635 172.735672,21.760294 171.806351,22.672388 
	C170.847763,23.427114 169.889175,24.181839 168.367477,25.167784 
	C167.964554,25.826250 167.561646,26.484718 167.007507,27.387333 
	C167.007507,27.387333 167.080383,27.665115 166.338867,28.114740 
	C165.905960,29.597309 165.064835,31.092110 165.108810,32.560394 
	C165.333344,40.055412 165.786453,47.543587 166.045776,55.518009 
	C166.045776,55.518009 166.167892,55.999844 166.023682,56.879025 
	C166.071243,59.252850 166.118805,61.626678 166.021393,64.889053 
	C166.070740,67.592194 166.120087,70.295326 166.028412,73.669952 
	C166.072815,74.122971 166.117233,74.575989 166.014816,75.953751 
	C166.066620,88.299911 166.118423,100.646072 166.037323,113.901344 
	C166.087204,117.268250 166.137100,120.635147 166.039413,124.905792 
	C166.082886,128.276337 166.126343,131.646866 166.021011,135.944092 
	C166.069656,147.962524 166.118317,159.980942 166.018036,172.926361 
z"/>
<path fill="#478695" opacity="1.000000" stroke="none" 
	d="
M149.954056,70.985405 
	C143.263245,71.309006 136.572449,71.632607 129.100586,71.625298 
	C116.223267,71.253159 104.126999,71.211922 91.563599,71.107376 
	C83.731247,70.984634 76.366035,70.925201 68.967735,70.496895 
	C68.115860,66.187462 64.971680,66.064064 61.940670,66.032425 
	C53.162148,65.940804 44.375935,65.745514 35.604916,66.004036 
	C26.225309,66.280502 16.709755,63.053177 7.382720,66.617546 
	C7.304801,65.175095 7.310664,64.119949 7.485343,62.715584 
	C7.802521,60.241787 7.950883,58.117214 8.554907,55.994591 
	C12.507366,55.935284 16.004032,55.830612 19.500984,55.820023 
	C38.253178,55.763229 57.006031,55.630013 75.757378,55.740517 
	C82.678253,55.781300 89.613426,56.922245 96.511162,56.680294 
	C114.606850,56.045551 132.685532,54.925880 150.839294,54.462212 
	C150.589752,60.278458 150.271896,65.631927 149.954056,70.985405 
z"/>
<path fill="#42A481" opacity="1.000000" stroke="none" 
	d="
M151.862991,154.105850 
	C151.671738,154.496704 151.480499,154.887558 150.643387,155.458679 
	C139.596817,155.720261 129.195297,155.753281 118.796249,155.931046 
	C117.087379,155.960251 115.389381,156.625534 113.270065,156.998108 
	C109.675087,157.689850 106.504547,158.421829 103.313171,159.047592 
	C102.240997,159.257828 100.706169,159.694580 100.081978,159.179886 
	C96.295929,156.057983 93.009163,157.910431 89.503014,159.685806 
	C87.464493,160.718018 85.171127,161.246948 82.989235,161.611176 
	C82.722801,159.484360 82.459572,157.748718 82.143173,155.546371 
	C82.160187,147.386200 82.230377,139.692734 82.633698,132.041565 
	C83.657959,132.500900 84.597595,132.753387 85.000175,133.361435 
	C87.750809,137.515991 90.711472,139.408264 94.887085,134.955002 
	C95.444160,134.360870 96.763504,134.160538 97.672157,134.267578 
	C105.221809,135.156998 112.086533,133.560181 119.213379,130.687866 
	C125.194687,128.277237 131.887909,125.949364 138.885742,128.549911 
	C140.463760,129.136337 142.690079,128.106735 144.585220,127.676689 
	C146.663025,127.205185 148.702911,126.566620 150.819031,126.466248 
	C150.911591,131.423035 150.842255,135.918167 151.005707,140.404800 
	C151.172226,144.976151 151.567734,149.539185 151.862991,154.105850 
z"/>
<path fill="#486CA8" opacity="1.000000" stroke="none" 
	d="
M7.161704,32.996784 
	C9.027614,25.199768 13.718099,21.682177 21.623978,21.999218 
	C24.760185,22.124989 27.906101,22.008673 31.838884,22.188728 
	C36.063770,22.305933 39.497368,22.236986 43.401115,22.113182 
	C53.931137,22.092678 63.991009,22.127029 74.223145,22.289211 
	C74.913429,22.331257 75.431458,22.245470 76.417412,22.103188 
	C82.276985,22.080320 87.668633,22.113949 93.414032,22.338400 
	C98.158302,22.398090 102.548798,22.266960 107.381577,22.080254 
	C109.901001,22.061081 111.978142,22.097483 114.411133,22.328205 
	C120.160545,22.391312 125.554100,22.260096 131.381622,22.073763 
	C133.562637,22.059269 135.309708,22.099894 137.420471,22.334568 
	C139.459641,22.478775 141.135117,22.428932 142.810593,22.379089 
	C145.111374,23.999949 147.412155,25.620810 149.842316,27.948250 
	C149.980026,29.771093 149.988358,30.887360 149.622986,32.096169 
	C146.544800,32.792511 143.846359,33.884903 141.134827,33.918430 
	C126.775116,34.095982 112.410690,33.881710 98.050621,34.043747 
	C81.299408,34.232765 64.551697,34.716995 47.800888,34.966911 
	C43.530457,35.030628 39.224560,34.308975 34.987644,34.634319 
	C29.402266,35.063213 23.873524,36.202774 18.311661,36.973511 
	C13.928462,37.580917 10.179287,36.282364 7.161704,32.996784 
z"/>
<path fill="#45A97F" opacity="1.000000" stroke="none" 
	d="
M150.759323,126.000854 
	C148.702911,126.566620 146.663025,127.205185 144.585220,127.676689 
	C142.690079,128.106735 140.463760,129.136337 138.885742,128.549911 
	C131.887909,125.949364 125.194687,128.277237 119.213379,130.687866 
	C112.086533,133.560181 105.221809,135.156998 97.672157,134.267578 
	C96.763504,134.160538 95.444160,134.360870 94.887085,134.955002 
	C90.711472,139.408264 87.750809,137.515991 85.000175,133.361435 
	C84.597595,132.753387 83.657959,132.500900 82.559158,131.627853 
	C82.189713,129.773300 82.227928,128.374786 82.389938,126.798828 
	C82.434776,126.089043 82.355820,125.556702 82.224327,124.620750 
	C82.211555,123.134567 82.251328,122.051987 82.432358,120.745438 
	C82.482201,119.695374 82.390785,118.869286 82.245667,117.597977 
	C82.114471,115.062973 82.036972,112.973190 81.959473,110.883408 
	C81.959473,110.883408 81.965973,110.969421 82.395233,111.037437 
	C98.265060,111.067307 113.705620,111.029160 129.146179,110.991013 
	C129.146179,110.991013 129.543015,110.953720 130.094040,111.228394 
	C137.096588,111.667740 143.548096,111.832420 150.227005,112.349556 
	C150.556030,117.134956 150.657684,121.567909 150.759323,126.000854 
z"/>
<path fill="#EE6C66" opacity="1.000000" stroke="none" 
	d="
M166.169815,135.017410 
	C166.126343,131.646866 166.082886,128.276337 166.413879,124.304123 
	C170.142975,118.005707 172.394775,117.278351 179.947479,118.172279 
	C183.983795,118.650009 188.126266,118.267448 192.220001,118.212387 
	C195.657501,118.166168 199.094772,117.930153 202.530457,117.961670 
	C207.129288,118.003860 211.725922,118.307678 216.324570,118.338379 
	C219.711166,118.360992 223.099457,118.125992 226.571472,118.466766 
	C226.599716,124.636810 226.543472,130.345871 226.053131,136.043243 
	C206.073273,135.713165 186.527496,135.394775 166.778534,135.064819 
	C166.575317,135.053238 166.169815,135.017410 166.169815,135.017410 
z"/>
<path fill="#EE7663" opacity="1.000000" stroke="none" 
	d="
M226.487000,118.005783 
	C223.099457,118.125992 219.711166,118.360992 216.324570,118.338379 
	C211.725922,118.307678 207.129288,118.003860 202.530457,117.961670 
	C199.094772,117.930153 195.657501,118.166168 192.220001,118.212387 
	C188.126266,118.267448 183.983795,118.650009 179.947479,118.172279 
	C172.394775,117.278351 170.142975,118.005707 166.487671,123.852257 
	C166.137100,120.635147 166.087204,117.268250 166.345551,113.150742 
	C166.820099,110.602089 166.986404,108.804024 167.560577,107.002106 
	C187.350128,103.665909 206.896744,105.227844 226.495575,105.478149 
	C226.567062,109.952934 226.527023,113.979355 226.487000,118.005783 
z"/>
<path fill="#C7DC27" opacity="1.000000" stroke="none" 
	d="
M15.806456,217.970917 
	C13.582015,216.205643 11.357578,214.440369 9.004539,212.044296 
	C8.543797,210.929108 8.211656,210.444717 7.879517,209.960327 
	C7.879519,209.960327 7.985754,209.984283 8.089357,209.664749 
	C8.099277,208.571732 8.005593,207.798248 8.140979,206.728882 
	C10.117855,205.290283 11.892885,203.127945 13.608962,203.173767 
	C23.260408,203.431442 32.894844,204.272919 42.541706,204.792313 
	C45.009327,204.925201 47.640400,204.051422 49.951500,204.625656 
	C54.309231,205.708420 58.699032,207.138763 62.556084,209.336273 
	C63.280964,209.749268 61.584152,214.412766 60.880325,217.346481 
	C60.485420,217.783463 60.215027,217.988831 59.944637,218.194183 
	C59.944637,218.194183 60.110535,217.991287 59.855797,218.221817 
	C58.332760,218.774857 57.064461,219.097366 55.341763,219.393311 
	C43.649403,219.362885 32.411438,219.359070 20.813522,219.175522 
	C18.904531,218.654175 17.355495,218.312531 15.806456,217.970917 
z"/>
<path fill="#4872A3" opacity="1.000000" stroke="none" 
	d="
M7.104929,33.335464 
	C10.179287,36.282364 13.928462,37.580917 18.311661,36.973511 
	C23.873524,36.202774 29.402266,35.063213 34.987644,34.634319 
	C39.224560,34.308975 43.530457,35.030628 47.800888,34.966911 
	C64.551697,34.716995 81.299408,34.232765 98.050621,34.043747 
	C112.410690,33.881710 126.775116,34.095982 141.134827,33.918430 
	C143.846359,33.884903 146.544800,32.792511 149.629227,32.545776 
	C150.002228,35.602764 149.995270,38.302689 149.581772,40.970200 
	C142.745148,40.291908 136.319931,39.152149 129.884125,39.088970 
	C106.806992,38.862431 83.725372,38.874313 60.647224,39.041241 
	C43.137379,39.167885 25.630234,39.667381 8.087473,39.627518 
	C7.749815,37.849575 7.446571,36.445091 7.143326,35.040607 
	C7.111602,34.585121 7.079878,34.129635 7.104929,33.335464 
z"/>
<path fill="#439F84" opacity="1.000000" stroke="none" 
	d="
M66.825813,87.000572 
	C66.871033,89.390968 66.916252,91.781364 66.678719,94.789597 
	C66.215446,95.940567 66.034927,96.473701 65.410889,97.004921 
	C45.759876,96.671364 26.552387,96.339729 7.267212,95.559113 
	C7.264974,92.076996 7.340419,89.043877 7.821895,86.005188 
	C13.816442,85.756714 19.405306,85.310829 24.993387,85.320442 
	C32.579132,85.333504 40.167171,85.623421 47.748787,85.929428 
	C54.111839,86.186241 60.467102,86.636154 66.825813,87.000572 
z"/>
<path fill="#44968A" opacity="1.000000" stroke="none" 
	d="
M66.891861,86.546432 
	C60.467102,86.636154 54.111839,86.186241 47.748787,85.929428 
	C40.167171,85.623421 32.579132,85.333504 24.993387,85.320442 
	C19.405306,85.310829 13.816442,85.756714 7.746641,85.558777 
	C7.322667,82.412567 7.379978,79.707214 7.813047,76.989426 
	C13.392443,76.317947 18.580311,75.327957 23.803490,75.079086 
	C31.236546,74.724930 38.699146,74.753510 46.142387,74.919968 
	C53.041267,75.074265 59.931293,75.624481 66.825226,76.000359 
	C66.869446,79.364342 66.913673,82.728317 66.891861,86.546432 
z"/>
<path fill="#C7D92A" opacity="1.000000" stroke="none" 
	d="
M167.080383,27.665115 
	C167.080383,27.665115 167.007507,27.387333 167.353775,27.129246 
	C168.110229,26.226294 168.520401,25.581430 168.930588,24.936565 
	C169.889175,24.181839 170.847763,23.427114 172.449112,22.425737 
	C187.098923,22.115370 201.105957,22.051651 215.113007,21.987934 
	C220.445023,23.525509 224.629944,26.299000 225.566772,32.518158 
	C217.540344,32.764572 209.928711,32.124981 202.372223,32.525471 
	C190.533051,33.152958 178.718140,35.596043 166.948792,31.572399 
	C166.988937,29.981565 167.034653,28.823339 167.080383,27.665115 
z"/>
<path fill="#468F90" opacity="1.000000" stroke="none" 
	d="
M66.891609,75.630707 
	C59.931293,75.624481 53.041267,75.074265 46.142387,74.919968 
	C38.699146,74.753510 31.236546,74.724930 23.803490,75.079086 
	C18.580311,75.327957 13.392443,76.317947 7.733093,76.540756 
	C7.340422,73.071304 7.403463,70.038078 7.466503,67.004852 
	C16.709755,63.053177 26.225309,66.280502 35.604916,66.004036 
	C44.375935,65.745514 53.162148,65.940804 61.940670,66.032425 
	C64.971680,66.064064 68.115860,66.187462 68.654053,70.592598 
	C67.937019,71.708313 67.500595,72.359444 67.064163,73.010574 
	C67.028770,73.760735 66.993385,74.510887 66.891609,75.630707 
z"/>
<path fill="#E9A04E" opacity="1.000000" stroke="none" 
	d="
M166.169434,72.998466 
	C166.120087,70.295326 166.070740,67.592194 166.509644,64.456421 
	C182.250549,64.682419 197.508957,65.235092 212.752350,66.064003 
	C217.351685,66.314095 221.909302,67.330879 226.564285,68.419998 
	C226.590408,70.561081 226.538300,72.278641 226.094635,73.993774 
	C205.858536,73.660400 186.013992,73.329430 166.169434,72.998466 
z"/>
<path fill="#E6AA49" opacity="1.000000" stroke="none" 
	d="
M226.486053,67.996460 
	C221.909302,67.330879 217.351685,66.314095 212.752350,66.064003 
	C197.508957,65.235092 182.250549,64.682419 166.582123,64.012146 
	C166.118805,61.626678 166.071243,59.252850 166.477844,56.527565 
	C170.698135,56.781174 174.446472,57.738865 178.233505,57.930031 
	C194.312454,58.741684 210.402908,59.325966 226.570358,60.432400 
	C226.596390,63.246490 226.541214,65.621475 226.486053,67.996460 
z"/>
<path fill="#C2DB2C" opacity="1.000000" stroke="none" 
	d="
M61.004841,217.114853 
	C61.584152,214.412766 63.280964,209.749268 62.556084,209.336273 
	C58.699032,207.138763 54.309231,205.708420 49.951500,204.625656 
	C47.640400,204.051422 45.009327,204.925201 42.541706,204.792313 
	C32.894844,204.272919 23.260408,203.431442 13.608962,203.173767 
	C11.892885,203.127945 10.117855,205.290283 7.921370,206.399597 
	C7.445070,203.912994 7.417449,201.459793 7.786580,198.990768 
	C17.121969,198.330399 26.062788,197.146866 34.998672,197.183029 
	C45.274940,197.224640 55.546848,198.345352 65.874298,199.439392 
	C66.232964,202.984818 66.537987,206.088196 66.843002,209.191589 
	C65.430519,211.759079 64.018044,214.326584 62.040482,217.030075 
	C61.475388,217.166077 61.004841,217.114853 61.004841,217.114853 
z"/>
<path fill="#E3B343" opacity="1.000000" stroke="none" 
	d="
M226.489151,59.993294 
	C210.402908,59.325966 194.312454,58.741684 178.233505,57.930031 
	C174.446472,57.738865 170.698135,56.781174 166.549957,56.087975 
	C166.167892,55.999844 166.045776,55.518009 166.329895,55.032326 
	C166.819183,53.689312 167.024338,52.831989 167.670029,51.981781 
	C177.491730,51.992634 186.875214,51.867435 196.253464,52.035168 
	C206.302811,52.214897 216.347229,52.670322 226.507019,53.429749 
	C226.576538,55.900478 226.532852,57.946884 226.489151,59.993294 
z"/>
<path fill="#EB9754" opacity="1.000000" stroke="none" 
	d="
M166.098923,73.334213 
	C186.013992,73.329430 205.858536,73.660400 226.164993,74.406738 
	C226.533966,76.204681 226.441040,77.587250 225.943359,78.977936 
	C206.077408,78.991936 186.616241,78.997803 167.109451,78.654343 
	C166.763107,77.213013 166.462372,76.121010 166.161652,75.029007 
	C166.117233,74.575989 166.072815,74.122971 166.098923,73.334213 
z"/>
<path fill="#4B809D" opacity="1.000000" stroke="none" 
	d="
M114.135269,211.129349 
	C111.135262,219.102554 103.602386,222.972275 94.653320,220.817444 
	C89.611580,219.603470 84.442421,218.278366 82.309425,212.122375 
	C82.316353,210.739944 82.189049,209.909164 82.068665,208.654510 
	C82.104599,206.819458 82.133606,205.408279 82.366219,203.986923 
	C82.569832,203.976761 82.976501,203.946640 82.993073,204.330048 
	C84.167908,205.678207 85.618584,207.679962 86.439529,207.448471 
	C95.376122,204.928543 104.166191,205.481812 112.993126,208.326431 
	C113.397736,209.492981 113.766502,210.311157 114.135269,211.129349 
z"/>
<path fill="#755BA2" opacity="1.000000" stroke="none" 
	d="
M175.019775,219.840408 
	C170.323181,219.623611 168.265350,216.135803 166.538788,212.440918 
	C179.084000,212.396683 191.257050,212.616852 203.430344,212.820770 
	C210.320068,212.936188 217.210251,213.024918 224.100220,213.125671 
	C221.976517,217.441757 217.950943,218.857941 212.982269,219.669647 
	C204.117401,219.277344 195.977203,219.048782 187.838058,219.081299 
	C183.564346,219.098373 179.292480,219.572617 175.019775,219.840408 
z"/>
<path fill="#CED32E" opacity="1.000000" stroke="none" 
	d="
M166.954376,32.005009 
	C178.718140,35.596043 190.533051,33.152958 202.372223,32.525471 
	C209.928711,32.124981 217.540344,32.764572 225.595337,32.905693 
	C226.365448,32.885509 226.615555,33.005573 226.761230,33.873581 
	C226.587524,35.658966 226.466339,36.804516 225.936249,37.960468 
	C206.107101,38.301559 186.686890,38.632248 167.206360,38.530838 
	C167.082153,36.067497 167.018265,34.036255 166.954376,32.005009 
z"/>
<path fill="#77CD43" opacity="1.000000" stroke="none" 
	d="
M66.836517,159.004532 
	C66.882416,160.396255 66.928322,161.787964 66.447830,163.591614 
	C46.412643,164.019348 26.903856,164.035141 7.332479,163.714203 
	C7.166130,162.259720 7.062372,161.141983 7.037712,159.686478 
	C7.205910,158.895935 7.295010,158.443161 7.697467,158.163605 
	C10.451548,158.248337 12.894890,158.038940 15.332554,158.091736 
	C27.562099,158.356613 39.789433,158.724609 52.019096,158.982559 
	C56.956196,159.086685 61.897259,159.002838 66.836517,159.004532 
z"/>
<path fill="#5EC35A" opacity="1.000000" stroke="none" 
	d="
M66.827850,143.002655 
	C66.875702,145.046249 66.923553,147.089828 66.535782,149.477905 
	C63.717670,149.217316 61.347939,148.147507 58.950642,148.081696 
	C41.757664,147.609589 24.559082,147.341568 7.275566,146.597382 
	C7.239488,144.792511 7.290122,143.398987 7.704437,142.035980 
	C11.517263,142.044571 14.967817,141.948212 18.415314,142.013443 
	C34.553288,142.318802 50.690418,142.668671 66.827850,143.002655 
z"/>
<path fill="#51B969" opacity="1.000000" stroke="none" 
	d="
M66.845535,129.962509 
	C66.886795,131.365417 66.928055,132.768326 66.442139,134.585754 
	C46.389587,134.667648 26.864208,134.335022 7.259081,133.590851 
	C7.231705,131.788055 7.284073,130.396805 7.731730,128.991516 
	C15.694262,128.684433 23.270775,128.005722 30.826603,128.187378 
	C42.592636,128.470245 54.344620,129.337479 66.288269,129.962280 
	C66.473991,129.967484 66.845535,129.962509 66.845535,129.962509 
z"/>
<path fill="#82D042" opacity="1.000000" stroke="none" 
	d="
M7.395069,164.050949 
	C26.903856,164.035141 46.412643,164.019348 66.374565,164.004120 
	C66.876831,166.048492 66.925957,168.092285 66.544235,170.466812 
	C63.411388,170.197678 60.713902,169.103348 58.006645,169.078613 
	C41.064159,168.923843 24.119495,169.007751 7.139127,168.655121 
	C7.200157,166.882034 7.297613,165.466492 7.395069,164.050949 
z"/>
<path fill="#905293" opacity="1.000000" stroke="none" 
	d="
M226.806732,198.006973 
	C226.851715,199.721619 226.896683,201.436249 226.421829,203.575134 
	C218.342453,204.043640 210.780777,203.992737 203.223938,204.159882 
	C196.182114,204.315628 189.138153,205.034592 182.108810,204.880844 
	C176.787308,204.764420 171.487320,203.664780 166.177750,203.002701 
	C166.132065,201.933060 166.086380,200.863419 166.503922,199.489243 
	C168.766647,199.455292 170.565247,199.953857 172.365738,199.960770 
	C188.336121,200.022156 204.307587,200.071976 220.276520,199.908157 
	C222.459518,199.885773 224.630295,198.670135 226.806732,198.006973 
z"/>
<path fill="#994F8F" opacity="1.000000" stroke="none" 
	d="
M226.873947,197.581894 
	C224.630295,198.670135 222.459518,199.885773 220.276520,199.908157 
	C204.307587,200.071976 188.336121,200.022156 172.365738,199.960770 
	C170.565247,199.953857 168.766647,199.455292 166.570984,199.092239 
	C166.138763,198.827728 166.102722,198.655670 166.393005,197.978882 
	C166.871399,195.980469 167.023483,194.486801 167.377274,193.293198 
	C168.732193,194.383286 169.871964,195.833237 171.040771,195.857040 
	C179.118118,196.021576 187.203354,195.982574 195.282455,195.824722 
	C203.066376,195.672638 210.867294,194.850998 218.618073,195.220016 
	C222.256805,195.393280 224.816650,195.019821 226.800629,192.007721 
	C226.847473,193.724091 226.894318,195.440445 226.873947,197.581894 
z"/>
<path fill="#A14D8C" opacity="1.000000" stroke="none" 
	d="
M226.881226,191.712280 
	C224.816650,195.019821 222.256805,195.393280 218.618073,195.220016 
	C210.867294,194.850998 203.066376,195.672638 195.282455,195.824722 
	C187.203354,195.982574 179.118118,196.021576 171.040771,195.857040 
	C169.871964,195.833237 168.732193,194.383286 167.328964,192.961304 
	C167.111389,191.884277 167.143829,191.439240 167.551392,191.082886 
	C170.034668,191.261429 172.150696,191.513702 174.249573,191.411987 
	C181.831207,191.044601 189.404099,190.276245 196.985931,190.196701 
	C204.409378,190.118835 211.838104,190.758148 219.267883,190.954971 
	C222.010941,191.027618 224.739944,190.702103 225.136368,186.829422 
	C225.654221,186.449661 226.031570,186.238052 226.516006,186.435440 
	C226.743103,187.963120 226.863098,189.081772 226.983093,190.200439 
	C226.975983,190.605911 226.968887,191.011368 226.881226,191.712280 
z"/>
<path fill="#7D569C" opacity="1.000000" stroke="none" 
	d="
M224.082855,213.110901 
	C217.210251,213.024918 210.320068,212.936188 203.430344,212.820770 
	C191.257050,212.616852 179.084000,212.396683 166.509644,212.096008 
	C166.088425,211.559692 166.068420,211.110672 166.491928,210.295059 
	C171.787979,209.511230 176.634521,208.838196 181.494171,208.724243 
	C196.611450,208.369751 211.733688,208.227249 226.854004,208.002518 
	C226.568192,208.789719 226.282394,209.576920 225.681488,210.789185 
	C224.943237,211.849701 224.520096,212.485153 224.096954,213.120605 
	C224.096970,213.120621 224.065491,213.096161 224.082855,213.110901 
z"/>
<path fill="#5ABF60" opacity="1.000000" stroke="none" 
	d="
M66.895676,142.589630 
	C50.690418,142.668671 34.553288,142.318802 18.415314,142.013443 
	C14.967817,141.948212 11.517263,142.044571 7.621604,141.640076 
	C7.229052,140.141876 7.283014,139.070099 7.784510,137.998383 
	C27.764307,137.999802 47.296570,138.001144 66.828835,138.002487 
	C66.873726,139.393860 66.918617,140.785233 66.895676,142.589630 
z"/>
<path fill="#8CD13C" opacity="1.000000" stroke="none" 
	d="
M7.175553,169.012665 
	C24.119495,169.007751 41.064159,168.923843 58.006645,169.078613 
	C60.713902,169.103348 63.411388,170.197678 66.474716,170.900024 
	C66.882812,172.384232 66.929581,173.765945 66.705559,175.577194 
	C66.434769,176.006729 66.041428,176.042465 65.767670,175.798035 
	C63.542946,174.726669 61.587097,173.173218 59.641788,173.186310 
	C42.186226,173.303711 24.732515,173.696548 7.181605,173.600342 
	C7.115150,171.799057 7.145352,170.405853 7.175553,169.012665 
z"/>
<path fill="#6DCA48" opacity="1.000000" stroke="none" 
	d="
M66.903061,158.672684 
	C61.897259,159.002838 56.956196,159.086685 52.019096,158.982559 
	C39.789433,158.724609 27.562099,158.356613 15.332554,158.091736 
	C12.894890,158.038940 10.451548,158.248337 7.614846,157.770004 
	C7.267808,156.135742 7.316748,155.068298 7.775374,154.001343 
	C9.177582,154.013260 10.170094,154.033951 11.162623,154.034790 
	C22.998308,154.044739 34.835598,153.937408 46.669060,154.103455 
	C53.489525,154.199158 60.645588,152.390656 66.840149,156.999481 
	C66.883293,157.446594 66.926445,157.893723 66.903061,158.672684 
z"/>
<path fill="#63C652" opacity="1.000000" stroke="none" 
	d="
M7.362279,147.008728 
	C24.559082,147.341568 41.757664,147.609589 58.950642,148.081696 
	C61.347939,148.147507 63.717670,149.217316 66.467148,149.910660 
	C66.879440,151.068298 66.924744,152.137650 66.535378,153.515274 
	C64.046211,153.224762 62.011490,152.190048 59.934109,152.095795 
	C42.413582,151.300949 24.885252,150.678040 7.279024,149.632996 
	C7.253280,148.511261 7.307779,147.759995 7.362279,147.008728 
z"/>
<path fill="#875496" opacity="1.000000" stroke="none" 
	d="
M226.905914,207.603607 
	C211.733688,208.227249 196.611450,208.369751 181.494171,208.724243 
	C176.634521,208.838196 171.787979,209.511230 166.557312,209.963730 
	C166.134155,207.955750 166.089127,205.912506 166.110931,203.435989 
	C171.487320,203.664780 176.787308,204.764420 182.108810,204.880844 
	C189.138153,205.034592 196.182114,204.315628 203.223938,204.159882 
	C210.780777,203.992737 218.342453,204.043640 226.354950,203.999802 
	C226.857880,205.068375 226.907852,206.136520 226.905914,207.603607 
z"/>
<path fill="#55BD64" opacity="1.000000" stroke="none" 
	d="
M66.896179,137.630249 
	C47.296570,138.001144 27.764307,137.999802 7.704854,137.603271 
	C7.231386,136.139511 7.285106,135.070969 7.338826,134.002411 
	C26.864208,134.335022 46.389587,134.667648 66.372658,135.000427 
	C66.874733,135.753082 66.919128,136.505554 66.896179,137.630249 
z"/>
<path fill="#68C94E" opacity="1.000000" stroke="none" 
	d="
M7.359268,150.003448 
	C24.885252,150.678040 42.413582,151.300949 59.934109,152.095795 
	C62.011490,152.190048 64.046211,153.224762 66.467743,153.912018 
	C66.880585,154.752151 66.926384,155.503815 66.906166,156.627472 
	C60.645588,152.390656 53.489525,154.199158 46.669060,154.103455 
	C34.835598,153.937408 22.998308,154.044739 11.162623,154.034790 
	C10.170094,154.033951 9.177582,154.013260 7.688738,153.606995 
	C7.248033,152.142593 7.303651,151.073013 7.359268,150.003448 
z"/>
<path fill="#FFF8F5" opacity="1.000000" stroke="none" 
	d="
M227.374527,189.976746 
	C226.863098,189.081772 226.743103,187.963120 226.617111,186.063843 
	C226.532211,184.525085 226.453293,183.766937 226.484833,182.569427 
	C226.530579,179.423584 226.465881,176.717087 226.509186,173.576355 
	C226.540680,170.763260 226.464172,168.384399 226.495483,165.565796 
	C226.540436,162.418564 226.477570,159.711044 226.518890,156.556091 
	C226.649200,152.459549 226.675339,148.810455 226.825989,144.739319 
	C226.866730,143.157196 226.782928,141.997116 226.718079,140.436462 
	C226.653763,138.708908 226.570511,137.381927 226.487244,136.054932 
	C226.543472,130.345871 226.599716,124.636810 226.571472,118.466766 
	C226.527023,113.979355 226.567062,109.952934 226.613861,105.049828 
	C226.543076,102.120552 226.465530,100.067955 226.486237,97.678787 
	C226.520920,96.883682 226.457321,96.425140 226.508453,95.545181 
	C226.557434,93.095406 226.491684,91.067039 226.523895,88.662521 
	C226.549225,87.519722 226.476608,86.753082 226.524933,85.660172 
	C226.756378,84.883469 226.866867,84.433037 227.190277,83.987411 
	C227.403214,83.992218 227.829163,83.996292 227.829163,83.996292 
	C227.808090,119.248543 227.787033,154.500793 227.374527,189.976746 
z"/>
<path fill="#ADBCD2" opacity="1.000000" stroke="none" 
	d="
M93.060272,22.147579 
	C87.668633,22.113949 82.276985,22.080320 76.101913,22.060326 
	C74.895950,22.103098 74.473412,22.132240 74.050880,22.161381 
	C63.991009,22.127029 53.931137,22.092678 43.014450,22.063267 
	C40.455906,21.760145 38.754181,21.452082 37.052456,21.144020 
	C71.518646,21.099245 105.984840,21.052980 140.451050,21.025084 
	C140.927078,21.024698 141.403320,21.255560 141.676880,21.737478 
	C140.001801,22.111151 138.529282,22.125834 137.056778,22.140518 
	C135.309708,22.099894 133.562637,22.059269 130.920578,22.022652 
	C124.702156,22.062403 119.378723,22.098145 114.055290,22.133884 
	C111.978142,22.097483 109.901001,22.061081 106.924500,22.029245 
	C101.703522,22.071735 97.381897,22.109657 93.060272,22.147579 
z"/>
<path fill="#E9FAEE" opacity="1.000000" stroke="none" 
	d="
M7.279024,149.632996 
	C7.303651,151.073013 7.248033,152.142593 7.279051,153.606506 
	C7.316748,155.068298 7.267808,156.135742 7.301490,157.596771 
	C7.295010,158.443161 7.205910,158.895935 6.838502,159.679718 
	C6.560194,160.010696 6.161553,160.008759 6.161553,160.008759 
	C6.108329,127.352837 6.055105,94.696907 6.323390,61.731815 
	C6.868775,61.970032 7.092650,62.517418 7.316526,63.064800 
	C7.310664,64.119949 7.304801,65.175095 7.382720,66.617546 
	C7.403463,70.038078 7.340422,73.071304 7.357335,76.553192 
	C7.379978,79.707214 7.322667,82.412567 7.340610,85.564331 
	C7.340419,89.043877 7.264974,92.076996 7.184184,96.014832 
	C7.230890,100.947403 7.282941,104.975250 7.254231,109.457176 
	C7.223855,113.608032 7.274241,117.304810 7.245623,121.440277 
	C7.223226,124.254486 7.279833,126.630020 7.336441,129.005554 
	C7.284073,130.396805 7.231705,131.788055 7.259082,133.590851 
	C7.285106,135.070969 7.231386,136.139511 7.257320,137.603195 
	C7.283014,139.070099 7.229052,140.141876 7.257924,141.609558 
	C7.290122,143.398987 7.239488,144.792511 7.275566,146.597382 
	C7.307779,147.759995 7.253280,148.511261 7.279024,149.632996 
z"/>
<path fill="#FFFFE3" opacity="1.000000" stroke="none" 
	d="
M21.173477,219.355240 
	C32.411438,219.359070 43.649403,219.362885 55.340210,219.587952 
	C55.793053,219.809174 56.002079,220.137833 56.002079,220.137833 
	C54.498241,220.424255 52.995014,220.954010 51.490471,220.957748 
	C41.440033,220.982773 31.389311,220.895584 21.241081,220.295502 
	C21.143484,219.746170 21.173477,219.355240 21.173477,219.355240 
z"/>
<path fill="#F3FBD1" opacity="1.000000" stroke="none" 
	d="
M6.084850,160.470764 
	C6.161553,160.008759 6.560194,160.010696 6.759404,160.017456 
	C7.062372,161.141983 7.166130,162.259720 7.332479,163.714203 
	C7.297613,165.466492 7.200157,166.882034 7.139127,168.655121 
	C7.145352,170.405853 7.115150,171.799057 7.152241,174.000092 
	C7.282501,175.873016 7.345471,176.938110 7.332103,178.377213 
	C7.306022,179.511246 7.356278,180.271255 7.332414,181.426208 
	C7.309289,182.888458 7.360284,183.955765 7.336177,185.455109 
	C7.314358,187.932617 7.367642,189.978088 7.341596,192.454041 
	C7.304787,194.925217 7.347307,196.965912 7.389828,199.006607 
	C7.417449,201.459793 7.445070,203.912994 7.692300,206.695465 
	C8.005593,207.798248 8.099277,208.571732 8.077324,209.717850 
	C7.305170,208.032990 6.103115,205.981644 6.079906,203.917023 
	C5.918854,189.590485 6.002810,175.261169 6.084850,160.470764 
z"/>
<path fill="#D5E392" opacity="1.000000" stroke="none" 
	d="
M66.041428,176.042465 
	C66.041428,176.042465 66.434769,176.006729 66.631119,175.986130 
	C67.217056,185.187515 67.654480,194.407959 67.949806,203.632950 
	C67.999863,205.196671 67.439072,206.779938 67.001755,208.772888 
	C66.537987,206.088196 66.232964,202.984818 65.921524,199.012451 
	C65.870331,196.429016 65.825569,194.714554 65.834930,192.558655 
	C65.851746,189.748489 65.814438,187.379776 65.827400,184.638458 
	C65.851860,183.516464 65.826050,182.767059 65.854637,181.618408 
	C65.879166,180.149734 65.849297,179.080307 65.870346,177.684418 
	C65.961319,176.919464 66.001373,176.480972 66.041428,176.042465 
z"/>
<path fill="#C1E1DD" opacity="1.000000" stroke="none" 
	d="
M82.162613,203.997086 
	C82.133606,205.408279 82.104599,206.819458 81.840332,208.642838 
	C81.605072,209.055023 81.147491,209.036072 81.147491,209.036072 
	C81.100426,192.328568 81.053368,175.621078 81.251106,158.446686 
	C81.495903,157.979797 81.824387,157.974945 81.885620,158.390381 
	C82.027908,160.201553 82.108971,161.597260 82.145889,163.410187 
	C82.128403,165.224167 82.155083,166.620956 82.110138,168.461487 
	C82.068611,171.599976 82.098701,174.294739 82.086220,177.385590 
	C82.076714,178.841034 82.109795,179.900391 82.074471,181.426575 
	C82.058250,189.261292 82.110435,196.629196 82.162613,203.997086 
z"/>
<path fill="#FFFEE7" opacity="1.000000" stroke="none" 
	d="
M227.909195,83.534164 
	C227.829163,83.996292 227.403214,83.992218 227.098312,83.575294 
	C226.644974,81.762184 226.496536,80.365997 226.348114,78.969810 
	C226.441040,77.587250 226.533966,76.204681 226.556549,74.409157 
	C226.538300,72.278641 226.590408,70.561081 226.564301,68.419998 
	C226.541214,65.621475 226.596390,63.246490 226.570358,60.432400 
	C226.532852,57.946884 226.576538,55.900478 226.615372,52.983791 
	C226.513168,49.077637 226.415833,46.041756 226.442017,42.596264 
	C226.492081,40.774456 226.418625,39.362259 226.345169,37.950066 
	C226.466339,36.804516 226.587524,35.658966 226.792725,34.083267 
	C227.249207,35.152946 227.937378,36.651115 227.945297,38.152870 
	C228.024170,53.125584 227.990860,68.098892 227.909195,83.534164 
z"/>
<path fill="#E1F5EE" opacity="1.000000" stroke="none" 
	d="
M113.686363,156.996857 
	C115.389381,156.625534 117.087379,155.960251 118.796249,155.931046 
	C129.195297,155.753281 139.596817,155.720261 150.459869,155.607117 
	C149.628983,156.050018 148.339951,156.922836 147.041809,156.936615 
	C136.512878,157.048569 125.982254,156.999496 114.994118,156.999496 
	C114.994118,160.925079 114.994118,164.508286 114.718933,168.550995 
	C114.443748,169.010483 114.051941,169.006790 113.966919,168.552155 
	C113.816719,164.397293 113.751541,160.697067 113.686363,156.996857 
z"/>
<path fill="#9ECEB5" opacity="1.000000" stroke="none" 
	d="
M66.916061,129.502594 
	C66.845535,129.962509 66.473991,129.967484 66.254021,129.516449 
	C65.967354,126.375168 65.900650,123.684929 65.883850,120.539200 
	C65.899437,116.721588 65.865135,113.359459 65.879608,109.536606 
	C65.903725,105.052872 65.879066,101.029854 65.854416,97.006844 
	C66.034927,96.473701 66.215446,95.940567 66.620346,95.234985 
	C66.978699,99.504784 67.218346,103.946930 67.222191,108.389282 
	C67.228149,115.273674 67.073273,122.158218 66.916061,129.502594 
z"/>
<path fill="#D4F1E6" opacity="1.000000" stroke="none" 
	d="
M81.824387,157.974945 
	C81.824387,157.974945 81.495903,157.979797 81.331680,157.983337 
	C81.173485,142.430054 81.179512,126.873238 81.572502,111.099915 
	C82.036972,112.973190 82.114471,115.062973 82.170914,117.959839 
	C82.196930,119.501091 82.244019,120.235252 82.291100,120.969414 
	C82.251328,122.051987 82.211555,123.134567 82.153458,124.943283 
	C82.178795,126.105042 82.222473,126.540657 82.266151,126.976265 
	C82.227928,128.374786 82.189713,129.773300 82.226028,131.585541 
	C82.230377,139.692734 82.160187,147.386200 82.056709,155.868423 
	C81.957077,157.096420 81.890732,157.535690 81.824387,157.974945 
z"/>
<path fill="#E4F8EC" opacity="1.000000" stroke="none" 
	d="
M128.933655,110.598122 
	C113.705620,111.029160 98.265060,111.067307 82.352173,111.039963 
	C82.554588,110.653259 83.229530,110.051590 83.904030,110.052078 
	C98.843094,110.062981 113.782112,110.140434 128.933655,110.598122 
z"/>
<path fill="#B7DECF" opacity="1.000000" stroke="none" 
	d="
M150.819031,126.466248 
	C150.657684,121.567909 150.556030,117.134956 150.276215,112.149597 
	C150.098053,111.597183 150.114151,111.185593 150.114151,111.185593 
	C150.745392,112.297020 151.914856,113.403275 151.925598,114.520668 
	C152.049423,127.395416 151.997574,140.271851 151.927704,153.626846 
	C151.567734,149.539185 151.172226,144.976151 151.005707,140.404800 
	C150.842255,135.918167 150.911591,131.423035 150.819031,126.466248 
z"/>
<path fill="#CEDFE7" opacity="1.000000" stroke="none" 
	d="
M150.108368,71.378296 
	C150.271896,65.631927 150.589752,60.278458 150.903931,54.065163 
	C150.852402,52.136921 150.804535,51.068493 150.824921,49.587616 
	C150.869934,47.784763 150.846741,46.394363 150.899353,44.542557 
	C150.987930,39.315357 151.000717,34.549561 151.013489,29.783768 
	C151.343887,30.784134 151.956451,31.783018 151.961700,32.785088 
	C152.024780,44.815830 152.037628,56.847427 151.919571,68.877396 
	C151.910049,69.847321 150.839935,70.806831 150.108368,71.378296 
z"/>
<path fill="#E7EEA7" opacity="1.000000" stroke="none" 
	d="
M214.896393,21.600456 
	C201.105957,22.051651 187.098923,22.115370 172.635498,22.162037 
	C172.735672,21.760294 173.292526,21.039635 173.848770,21.040089 
	C187.459152,21.051207 201.069473,21.138958 214.896393,21.600456 
z"/>
<path fill="#E3DF86" opacity="1.000000" stroke="none" 
	d="
M166.948792,31.572399 
	C167.018265,34.036255 167.082153,36.067497 167.150299,38.947433 
	C167.185364,41.188610 167.216217,42.581097 167.202667,44.416801 
	C167.182007,47.231571 167.205750,49.603119 167.229492,51.974663 
	C167.024338,52.831989 166.819183,53.689312 166.386810,54.790398 
	C165.786453,47.543587 165.333344,40.055412 165.108810,32.560394 
	C165.064835,31.092110 165.905960,29.597309 166.709625,27.889927 
	C167.034653,28.823339 166.988937,29.981565 166.948792,31.572399 
z"/>
<path fill="#F6B3C4" opacity="1.000000" stroke="none" 
	d="
M166.095413,135.480743 
	C166.169815,135.017410 166.575317,135.053238 166.788651,135.503540 
	C167.062576,138.319412 167.123169,140.684952 167.125427,143.504333 
	C167.096924,147.638214 167.126755,151.318298 167.103653,155.395966 
	C167.087753,156.860397 167.124786,157.927216 167.112427,159.371948 
	C167.349762,160.676544 167.636505,161.603256 167.763275,162.526581 
	C167.603287,162.523178 167.519684,162.832092 167.361572,163.185165 
	C167.192169,165.353577 167.180878,167.168930 167.117676,169.374512 
	C167.102188,170.548157 167.138565,171.331543 167.088120,172.074387 
	C167.001297,172.033844 166.829300,171.949310 166.663742,171.962128 
	C166.498184,171.974960 166.166977,171.999374 166.166977,171.999374 
	C166.118317,159.980942 166.069656,147.962524 166.095413,135.480743 
z"/>
<path fill="#9D92B9" opacity="1.000000" stroke="none" 
	d="
M175.484650,219.907104 
	C179.292480,219.572617 183.564346,219.098373 187.838058,219.081299 
	C195.977203,219.048782 204.117401,219.277344 212.601105,219.618942 
	C200.613205,219.884857 188.281357,219.929321 175.484650,219.907104 
z"/>
<path fill="#F4C4AE" opacity="1.000000" stroke="none" 
	d="
M166.088226,75.491379 
	C166.462372,76.121010 166.763107,77.213013 167.061600,79.089798 
	C167.087509,81.916756 167.115662,83.958939 167.095734,86.416321 
	C167.081329,88.222069 167.115005,89.612610 167.106445,91.430237 
	C167.098907,93.572159 167.133621,95.286980 167.119324,97.437256 
	C167.099091,99.914177 167.127884,101.955650 167.113342,104.372078 
	C167.097595,105.500008 167.125168,106.252983 167.152725,107.005966 
	C166.986404,108.804024 166.820099,110.602089 166.412003,112.696190 
	C166.118423,100.646072 166.066620,88.299911 166.088226,75.491379 
z"/>
<path fill="#87ABBD" opacity="1.000000" stroke="none" 
	d="
M7.485342,62.715584 
	C7.092650,62.517418 6.868775,61.970032 6.388167,61.275200 
	C6.421679,52.737343 6.711922,44.346939 7.072746,35.498573 
	C7.446571,36.445091 7.749815,37.849575 8.047062,40.075924 
	C8.066589,43.597427 8.092113,46.297062 8.079842,49.432922 
	C8.061112,51.910313 8.080179,53.951473 8.099246,55.992638 
	C7.950883,58.117214 7.802521,60.241787 7.485342,62.715584 
z"/>
<path fill="#B3D2DA" opacity="1.000000" stroke="none" 
	d="
M92.030731,71.170685 
	C104.126999,71.211922 116.223267,71.253159 128.631897,71.567093 
	C116.942551,71.883194 104.940849,71.926582 92.480042,71.735878 
	C92.020943,71.501785 92.030731,71.170692 92.030731,71.170685 
z"/>
<path fill="#E5BAD5" opacity="1.000000" stroke="none" 
	d="
M166.092499,172.462860 
	C166.166977,171.999374 166.498184,171.974960 166.716064,172.400925 
	C167.008972,174.884247 167.084030,176.941605 167.102966,179.363052 
	C167.105957,181.160355 167.165070,182.593567 167.175079,184.366653 
	C167.181366,185.377243 167.236755,186.047958 167.203979,187.066925 
	C167.135956,188.608200 167.156128,189.801193 167.176285,190.994202 
	C167.143829,191.439240 167.111389,191.884277 167.127243,192.661224 
	C167.023483,194.486801 166.871399,195.980469 166.436310,197.718781 
	C166.108215,189.617737 166.063126,181.272049 166.092499,172.462860 
z"/>
<path fill="#72A5A4" opacity="1.000000" stroke="none" 
	d="
M114.490150,210.874054 
	C113.766502,210.311157 113.397736,209.492981 113.012070,207.870575 
	C112.971489,203.703201 112.947807,200.340073 113.186310,196.961334 
	C113.622765,196.958557 113.797035,196.971375 114.188301,196.966553 
	C114.405289,196.948929 114.840675,196.953461 114.840675,196.953461 
	C114.842125,201.508560 114.843575,206.063660 114.490150,210.874054 
z"/>
<path fill="#EAFDF5" opacity="1.000000" stroke="none" 
	d="
M114.912094,196.490875 
	C114.840675,196.953461 114.405289,196.948929 114.141922,196.531464 
	C113.785950,194.073959 113.693352,192.033920 113.687332,189.543457 
	C113.721313,185.726318 113.668716,182.359589 113.700851,178.555145 
	C113.725815,175.739746 113.666039,173.362030 113.697273,170.658249 
	C113.876175,169.890381 113.964058,169.448578 114.051941,169.006790 
	C114.051941,169.006790 114.443748,169.010483 114.639664,169.009216 
	C114.884888,178.014740 114.934196,187.021515 114.912094,196.490875 
z"/>
<path fill="#A3C9CF" opacity="1.000000" stroke="none" 
	d="
M91.563599,71.107376 
	C92.030731,71.170692 92.020943,71.501785 92.016586,71.667358 
	C85.710289,71.886520 79.406662,71.874718 73.107483,72.036194 
	C71.366638,72.080826 69.639023,72.641273 67.484749,72.987816 
	C67.500595,72.359444 67.937019,71.708313 68.687134,70.961479 
	C76.366035,70.925201 83.731247,70.984634 91.563599,71.107376 
z"/>
<path fill="#5C9F8E" opacity="1.000000" stroke="none" 
	d="
M149.648926,111.074829 
	C150.114151,111.185593 150.098053,111.597183 150.048828,111.797142 
	C143.548096,111.832420 137.096588,111.667740 130.286072,111.281647 
	C136.345963,111.028183 142.764832,110.996117 149.648926,111.074829 
z"/>
<path fill="#5F84A0" opacity="1.000000" stroke="none" 
	d="
M151.057617,29.468483 
	C151.000717,34.549561 150.987930,39.315357 150.742813,44.390434 
	C150.315353,44.482750 150.142624,44.249218 149.996368,43.624535 
	C149.996414,42.500835 149.992355,41.751724 149.988312,41.002609 
	C149.995270,38.302689 150.002228,35.602764 150.002930,32.453232 
	C149.988358,30.887360 149.980026,29.771093 150.006378,28.237280 
	C150.394608,28.264221 150.748184,28.708712 151.057617,29.468483 
z"/>
<path fill="#48689F" opacity="1.000000" stroke="none" 
	d="
M36.665325,21.089973 
	C38.754181,21.452082 40.455906,21.760145 42.544296,22.118124 
	C39.497368,22.236986 36.063770,22.305933 32.296612,22.146549 
	C33.401432,21.624121 34.839813,21.330023 36.665325,21.089973 
z"/>
<path fill="#E4ED9E" opacity="1.000000" stroke="none" 
	d="
M20.813522,219.175522 
	C21.173477,219.355240 21.143484,219.746170 21.031410,219.906845 
	C19.307711,219.606842 17.696087,219.146179 15.945461,218.328217 
	C17.355495,218.312531 18.904531,218.654175 20.813522,219.175522 
z"/>
<path fill="#E4ED9E" opacity="1.000000" stroke="none" 
	d="
M56.384514,220.076233 
	C56.002079,220.137833 55.793053,219.809174 55.794609,219.614532 
	C57.064461,219.097366 58.332760,218.774857 59.957207,218.304810 
	C59.131218,218.776382 57.949085,219.395508 56.384514,220.076233 
z"/>
<path fill="#48689F" opacity="1.000000" stroke="none" 
	d="
M137.420471,22.334568 
	C138.529282,22.125834 140.001801,22.111151 141.914276,22.133183 
	C142.354263,22.169901 142.649246,22.130795 142.729919,22.254942 
	C141.135117,22.428932 139.459641,22.478775 137.420471,22.334568 
z"/>
<path fill="#5C9F8E" opacity="1.000000" stroke="none" 
	d="
M81.072174,209.355804 
	C81.147491,209.036072 81.605072,209.055023 81.833405,209.066696 
	C82.189049,209.909164 82.316353,210.739944 82.254608,211.776398 
	C81.709320,211.213211 81.353088,210.444382 81.072174,209.355804 
z"/>
<path fill="#755BA2" opacity="1.000000" stroke="none" 
	d="
M224.378784,213.006393 
	C224.520096,212.485153 224.943237,211.849701 225.650650,211.113098 
	C225.510147,211.638702 225.085373,212.265442 224.378784,213.006393 
z"/>
<path fill="#E3DF86" opacity="1.000000" stroke="none" 
	d="
M168.649033,25.052176 
	C168.520401,25.581430 168.110229,26.226294 167.429382,27.007172 
	C167.561646,26.484718 167.964554,25.826250 168.649033,25.052176 
z"/>
<path fill="#F3FBD1" opacity="1.000000" stroke="none" 
	d="
M7.954566,210.269226 
	C8.211656,210.444717 8.543797,210.929108 8.891795,211.726334 
	C8.614975,211.552170 8.322296,211.065140 7.954566,210.269226 
z"/>
<path fill="#E4ED9E" opacity="1.000000" stroke="none" 
	d="
M60.880325,217.346481 
	C61.004841,217.114853 61.475388,217.166077 61.710876,217.165833 
	C61.506802,217.623947 61.067238,218.082321 60.286156,218.367432 
	C60.215027,217.988831 60.485420,217.783463 60.880325,217.346481 
z"/>
<path fill="#477F9A" opacity="1.000000" stroke="none" 
	d="
M8.554907,55.994591 
	C8.080179,53.951473 8.061112,51.910313 8.300099,49.433434 
	C8.558153,48.997715 8.999551,48.998497 9.200377,49.278042 
	C11.851966,50.010578 14.293432,50.769279 16.755695,50.844173 
	C20.355461,50.953663 23.970072,50.434803 27.578493,50.432812 
	C32.992931,50.429829 38.419083,50.922306 43.819267,50.698277 
	C51.918755,50.362255 60.000072,49.099194 68.089088,49.099495 
	C86.113823,49.100166 104.137840,49.690014 122.163551,49.937836 
	C131.693085,50.068855 141.225540,49.986233 150.756683,50.000069 
	C150.804535,51.068493 150.852402,52.136921 150.835617,53.602394 
	C132.685532,54.925880 114.606850,56.045551 96.511162,56.680294 
	C89.613426,56.922245 82.678253,55.781300 75.757378,55.740517 
	C57.006031,55.630013 38.253178,55.763229 19.500984,55.820023 
	C16.004032,55.830612 12.507366,55.935284 8.554907,55.994591 
z"/>
<path fill="#40A084" opacity="1.000000" stroke="none" 
	d="
M113.966919,168.552155 
	C113.964058,169.448578 113.876175,169.890381 113.263283,170.662262 
	C102.834824,171.703766 92.742035,166.825150 82.984123,171.652863 
	C82.712906,170.209717 82.447334,169.113739 82.181763,168.017746 
	C82.155083,166.620956 82.128403,165.224167 82.298088,163.260666 
	C82.683380,162.479919 82.849373,162.249374 82.992432,162.002319 
	C85.171127,161.246948 87.464493,160.718018 89.503014,159.685806 
	C93.009163,157.910431 96.295929,156.057983 100.081978,159.179886 
	C100.706169,159.694580 102.240997,159.257828 103.313171,159.047592 
	C106.504547,158.421829 109.675087,157.689850 113.270065,156.998108 
	C113.751541,160.697067 113.816719,164.397293 113.966919,168.552155 
z"/>
<path fill="#5C9F8E" opacity="1.000000" stroke="none" 
	d="
M82.989235,161.611176 
	C82.849373,162.249374 82.683380,162.479919 82.342239,162.843475 
	C82.108971,161.597260 82.027908,160.201553 81.885620,158.390381 
	C81.890732,157.535690 81.957077,157.096420 82.109879,156.335114 
	C82.459572,157.748718 82.722801,159.484360 82.989235,161.611176 
z"/>
<path fill="#48689F" opacity="1.000000" stroke="none" 
	d="
M114.411133,22.328207 
	C119.378723,22.098145 124.702156,22.062403 130.486633,22.077770 
	C125.554100,22.260096 120.160545,22.391312 114.411133,22.328207 
z"/>
<path fill="#48689F" opacity="1.000000" stroke="none" 
	d="
M93.414032,22.338402 
	C97.381897,22.109657 101.703522,22.071735 106.482224,22.084820 
	C102.548798,22.266960 98.158302,22.398090 93.414032,22.338402 
z"/>
<path fill="#48689F" opacity="1.000000" stroke="none" 
	d="
M74.223145,22.289213 
	C74.473412,22.132240 74.895950,22.103098 75.633980,22.116821 
	C75.431458,22.245470 74.913429,22.331257 74.223145,22.289213 
z"/>
<path fill="#5C9F8E" opacity="1.000000" stroke="none" 
	d="
M82.432358,120.745438 
	C82.244019,120.235252 82.196930,119.501091 82.224609,118.405060 
	C82.390785,118.869286 82.482201,119.695374 82.432358,120.745438 
z"/>
<path fill="#5C9F8E" opacity="1.000000" stroke="none" 
	d="
M82.389938,126.798828 
	C82.222473,126.540657 82.178795,126.105042 82.205994,125.346893 
	C82.355820,125.556702 82.434776,126.089043 82.389938,126.798828 
z"/>
<path fill="#F24C66" opacity="1.000000" stroke="none" 
	d="
M167.183777,143.050507 
	C167.123169,140.684952 167.062576,138.319412 166.991852,135.515121 
	C186.527496,135.394775 206.073273,135.713165 226.053131,136.043243 
	C226.570511,137.381927 226.653763,138.708908 226.414703,140.576019 
	C225.756104,142.352875 225.419830,143.589630 225.062775,145.119934 
	C225.028198,145.609207 225.014404,145.804916 224.549454,146.000366 
	C219.978394,145.563629 215.867889,144.957901 211.736496,144.728012 
	C204.498505,144.325256 197.247742,144.151382 190.002228,143.884689 
	C182.396149,143.604736 174.789917,143.328415 167.183777,143.050507 
z"/>
<path fill="#EE7E61" opacity="1.000000" stroke="none" 
	d="
M167.560577,107.002106 
	C167.125168,106.252983 167.097595,105.500008 167.469452,104.343330 
	C171.367294,102.615089 174.806000,100.354698 178.374420,100.126961 
	C194.358749,99.106850 210.380035,98.665558 226.387970,98.015350 
	C226.465530,100.067955 226.543076,102.120552 226.502335,104.601471 
	C206.896744,105.227844 187.350128,103.665909 167.560577,107.002106 
z"/>
<path fill="#4877A0" opacity="1.000000" stroke="none" 
	d="
M8.999552,48.998497 
	C8.999551,48.998497 8.558153,48.997715 8.337894,48.997208 
	C8.092113,46.297062 8.066589,43.597427 8.081476,40.449379 
	C25.630234,39.667381 43.137379,39.167885 60.647224,39.041241 
	C83.725372,38.874313 106.806992,38.862431 129.884125,39.088970 
	C136.319931,39.152149 142.745148,40.291908 149.581772,40.970200 
	C149.992355,41.751724 149.996414,42.500835 149.529114,43.624832 
	C131.684631,43.484463 114.260719,47.192791 96.918358,43.383236 
	C96.178024,43.220604 95.314438,43.691780 94.498856,43.787434 
	C88.258469,44.519314 82.018906,45.797077 75.773102,45.831837 
	C62.694603,45.904636 49.613380,45.142857 36.531414,45.072990 
	C29.096409,45.033283 21.642744,45.509586 14.231404,46.147552 
	C12.419080,46.303562 10.739931,48.006687 8.999552,48.998497 
z"/>
<path fill="#45A87D" opacity="1.000000" stroke="none" 
	d="
M65.410889,97.004921 
	C65.879066,101.029854 65.903725,105.052872 65.473511,109.500305 
	C45.806976,108.602997 26.576971,108.428360 7.334992,109.003105 
	C7.282941,104.975250 7.230890,100.947403 7.261868,96.463821 
	C26.552387,96.339729 45.759876,96.671364 65.410889,97.004921 
z"/>
<path fill="#BAD92B" opacity="1.000000" stroke="none" 
	d="
M65.780807,193.000076 
	C65.825569,194.714554 65.870331,196.429016 65.867874,198.570419 
	C55.546848,198.345352 45.274940,197.224640 34.998672,197.183029 
	C26.062788,197.146866 17.121969,198.330399 7.786580,198.990768 
	C7.347307,196.965912 7.304787,194.925217 7.701318,192.407318 
	C11.157876,191.298126 14.178175,190.119797 17.192373,190.135223 
	C26.757307,190.184113 36.329197,190.515396 45.880341,191.056320 
	C52.529198,191.432877 59.148373,192.333542 65.780807,193.000076 
z"/>
<path fill="#DEBC3D" opacity="1.000000" stroke="none" 
	d="
M167.670013,51.981781 
	C167.205750,49.603119 167.182007,47.231571 167.601898,44.426651 
	C174.260345,44.659191 180.464325,45.479603 186.695190,45.917007 
	C189.283249,46.098690 191.993362,44.959072 194.536865,45.285675 
	C205.313629,46.669468 215.924072,46.573002 226.318481,43.005878 
	C226.415833,46.041756 226.513168,49.077637 226.502151,52.559471 
	C216.347229,52.670322 206.302811,52.214897 196.253464,52.035168 
	C186.875214,51.867435 177.491730,51.992634 167.670013,51.981781 
z"/>
<path fill="#ED9058" opacity="1.000000" stroke="none" 
	d="
M167.143814,86.001114 
	C167.115662,83.958939 167.087509,81.916756 167.107208,79.439133 
	C186.616241,78.997803 206.077408,78.991936 225.943344,78.977936 
	C226.496536,80.365997 226.644974,81.762184 226.885376,83.570496 
	C226.866867,84.433037 226.756378,84.883469 226.114014,85.663597 
	C206.102524,84.718246 186.622971,83.818748 167.143814,86.001114 
z"/>
<path fill="#438696" opacity="1.000000" stroke="none" 
	d="
M112.924126,196.976929 
	C112.947807,200.340073 112.971489,203.703201 112.976219,207.522217 
	C104.166191,205.481812 95.376122,204.928543 86.439529,207.448471 
	C85.618584,207.679962 84.167908,205.678207 82.988373,203.906769 
	C82.970337,201.395172 82.973572,199.690262 83.389359,197.980820 
	C93.437889,195.561859 103.187202,196.449860 112.924126,196.976929 
z"/>
<path fill="#5C9F8E" opacity="1.000000" stroke="none" 
	d="
M82.976807,197.985352 
	C82.973572,199.690262 82.970337,201.395172 82.971802,203.523361 
	C82.976501,203.946640 82.569832,203.976761 82.366226,203.986923 
	C82.110435,196.629196 82.058250,189.261292 82.282776,181.440765 
	C82.559486,180.988113 82.976547,181.009033 82.977097,181.466003 
	C82.978790,185.278122 82.979950,188.633301 82.975677,192.417084 
	C82.972435,194.558929 82.974617,196.272141 82.976807,197.985352 
z"/>
<path fill="#D7C735" opacity="1.000000" stroke="none" 
	d="
M226.442017,42.596264 
	C215.924072,46.573002 205.313629,46.669468 194.536865,45.285675 
	C191.993362,44.959072 189.283249,46.098690 186.695190,45.917007 
	C180.464325,45.479603 174.260345,44.659191 167.646301,43.983425 
	C167.216217,42.581097 167.185364,41.188610 167.210602,39.379532 
	C186.686890,38.632248 206.107101,38.301559 225.936249,37.960468 
	C226.418625,39.362259 226.492081,40.774456 226.442017,42.596264 
z"/>
<path fill="#4CB56F" opacity="1.000000" stroke="none" 
	d="
M65.833954,120.994682 
	C65.900650,123.684929 65.967354,126.375168 66.068298,129.511230 
	C54.344620,129.337479 42.592636,128.470245 30.826603,128.187378 
	C23.270775,128.005722 15.694262,128.684433 7.731730,128.991516 
	C7.279833,126.630020 7.223226,124.254486 7.667826,121.439049 
	C27.390673,120.997658 46.612312,120.996170 65.833954,120.994682 
z"/>
<path fill="#A94B89" opacity="1.000000" stroke="none" 
	d="
M167.551392,191.082886 
	C167.156128,189.801193 167.135956,188.608200 167.633820,187.194214 
	C169.929260,187.053116 171.720169,187.312958 173.481705,187.180984 
	C180.222839,186.675858 186.957748,185.535767 193.688980,185.578491 
	C204.127197,185.644775 214.560471,186.485291 224.995850,186.997559 
	C224.739944,190.702103 222.010941,191.027618 219.267883,190.954971 
	C211.838104,190.758148 204.409378,190.118835 196.985931,190.196701 
	C189.404099,190.276245 181.831207,191.044601 174.249573,191.411987 
	C172.150696,191.513702 170.034668,191.261429 167.551392,191.082886 
z"/>
<path fill="#B14A87" opacity="1.000000" stroke="none" 
	d="
M225.136368,186.829422 
	C214.560471,186.485291 204.127197,185.644775 193.688980,185.578491 
	C186.957748,185.535767 180.222839,186.675858 173.481705,187.180984 
	C171.720169,187.312958 169.929260,187.053116 167.721985,186.845947 
	C167.236755,186.047958 167.181366,185.377243 167.645248,184.355209 
	C173.707840,183.440613 179.249817,182.420456 184.794769,182.403992 
	C198.653915,182.362823 212.514420,182.777191 226.374390,183.008774 
	C226.453293,183.766937 226.532211,184.525085 226.510010,185.654846 
	C226.031570,186.238052 225.654221,186.449661 225.136368,186.829422 
z"/>
<path fill="#96D338" opacity="1.000000" stroke="none" 
	d="
M65.767670,175.798035 
	C66.001373,176.480972 65.961319,176.919464 65.464287,177.669357 
	C62.378304,177.663574 59.745136,177.042740 57.120972,177.078705 
	C40.549015,177.305801 23.979057,177.678528 7.408441,178.003189 
	C7.345471,176.938110 7.282501,175.873016 7.248897,174.408203 
	C24.732515,173.696548 42.186226,173.303711 59.641788,173.186310 
	C61.587097,173.173218 63.542946,174.726669 65.767670,175.798035 
z"/>
<path fill="#D34576" opacity="1.000000" stroke="none" 
	d="
M167.169571,168.984283 
	C167.180878,167.168930 167.192169,165.353577 167.865433,163.240219 
	C174.653839,162.712494 180.789917,162.148941 186.904633,162.325455 
	C198.180878,162.650925 209.445129,163.401031 220.713181,163.996567 
	C223.568436,164.147491 225.202393,163.079193 225.009491,159.698029 
	C225.488922,158.601807 225.951813,157.802673 226.414703,157.003540 
	C226.477570,159.711044 226.540436,162.418564 226.256012,165.727417 
	C225.607285,167.221405 225.305862,168.114059 224.607437,168.997833 
	C222.570526,168.836792 220.925522,168.511749 219.291489,168.559692 
	C205.649734,168.960114 192.011963,169.517227 178.368378,169.819763 
	C174.643448,169.902359 170.902939,169.282028 167.169571,168.984283 
z"/>
<path fill="#ED855E" opacity="1.000000" stroke="none" 
	d="
M167.168335,97.001808 
	C167.133621,95.286980 167.098907,93.572159 167.526093,91.426407 
	C178.239792,90.406372 188.485306,89.636269 198.745209,89.281937 
	C207.963928,88.963562 217.198410,89.101845 226.425949,89.038681 
	C226.491684,91.067039 226.557434,93.095406 226.147858,95.439331 
	C223.388580,95.503288 221.099075,94.999428 218.821762,95.049561 
	C213.061920,95.176369 207.265503,96.125771 201.559814,95.707634 
	C190.013306,94.861465 178.537903,93.935509 167.168335,97.001808 
z"/>
<path fill="#E5436C" opacity="1.000000" stroke="none" 
	d="
M226.518890,156.556091 
	C225.951813,157.802673 225.488922,158.601807 224.590637,159.665649 
	C221.022720,159.620514 217.891617,159.060822 214.757416,159.042999 
	C199.169128,158.954269 183.580032,159.008209 167.783875,159.007111 
	C167.576523,159.002304 167.161819,158.994034 167.161819,158.994034 
	C167.124786,157.927216 167.087753,156.860397 167.512054,155.359589 
	C182.021561,154.792984 196.069672,154.584488 210.117966,154.570160 
	C214.850616,154.565338 219.583771,155.053513 225.000610,155.354370 
	C225.000610,151.882263 225.000610,148.941437 225.000610,146.000610 
	C225.014404,145.804916 225.028198,145.609207 225.328796,145.193802 
	C225.977539,145.036514 226.339493,145.098923 226.701462,145.161346 
	C226.675339,148.810455 226.649200,152.459549 226.518890,156.556091 
z"/>
<path fill="#C1477D" opacity="1.000000" stroke="none" 
	d="
M225.004440,169.006714 
	C225.305862,168.114059 225.607285,167.221405 226.148193,166.167145 
	C226.464172,168.384399 226.540680,170.763260 226.247253,173.773560 
	C224.827682,176.918472 223.184296,178.041519 220.221848,178.071823 
	C202.532944,178.252762 184.846405,178.664597 167.159073,178.998962 
	C167.084030,176.941605 167.008972,174.884247 166.881622,172.388092 
	C166.829300,171.949310 167.001297,172.033844 167.298035,172.361481 
	C169.267532,173.457947 170.935989,174.861359 172.613876,174.872726 
	C177.063385,174.902908 181.511780,174.188828 185.969925,174.027359 
	C197.553772,173.607773 209.141479,173.272400 220.730255,173.027176 
	C223.569214,172.967102 225.198502,172.072220 225.004440,169.006714 
z"/>
<path fill="#ED8A5B" opacity="1.000000" stroke="none" 
	d="
M226.523895,88.662521 
	C217.198410,89.101845 207.963928,88.963562 198.745209,89.281937 
	C188.485306,89.636269 178.239792,90.406372 167.568359,90.999313 
	C167.115005,89.612610 167.081329,88.222069 167.095734,86.416321 
	C186.622971,83.818748 206.102524,84.718246 225.993073,85.989868 
	C226.476608,86.753082 226.549225,87.519722 226.523895,88.662521 
z"/>
<path fill="#B94882" opacity="1.000000" stroke="none" 
	d="
M167.102966,179.363037 
	C184.846405,178.664597 202.532944,178.252762 220.221848,178.071823 
	C223.184296,178.041519 224.827682,176.918472 226.139252,174.207794 
	C226.465881,176.717087 226.530579,179.423584 226.484833,182.569427 
	C212.514420,182.777191 198.653915,182.362823 184.794769,182.403992 
	C179.249817,182.420456 173.707840,183.440613 167.694351,184.015335 
	C167.165070,182.593567 167.105957,181.160355 167.102966,179.363037 
z"/>
<path fill="#ED7F5F" opacity="1.000000" stroke="none" 
	d="
M167.119324,97.437256 
	C178.537903,93.935509 190.013306,94.861465 201.559814,95.707634 
	C207.265503,96.125771 213.061920,95.176369 218.821762,95.049561 
	C221.099075,94.999428 223.388580,95.503288 226.033127,95.860748 
	C226.457321,96.425140 226.520920,96.883682 226.486237,97.678787 
	C210.380035,98.665558 194.358749,99.106850 178.374420,100.126961 
	C174.806000,100.354698 171.367294,102.615089 167.512756,103.968384 
	C167.127884,101.955650 167.099091,99.914177 167.119324,97.437256 
z"/>
<path fill="#E495A0" opacity="1.000000" stroke="none" 
	d="
M226.825989,144.739319 
	C226.339493,145.098923 225.977539,145.036514 225.349564,144.900238 
	C225.419830,143.589630 225.756104,142.352875 226.395752,140.976578 
	C226.782928,141.997116 226.866730,143.157196 226.825989,144.739319 
z"/>
<path fill="#47AF75" opacity="1.000000" stroke="none" 
	d="
M65.883850,120.539200 
	C46.612312,120.996170 27.390673,120.997658 7.746829,121.000366 
	C7.274241,117.304810 7.223855,113.608032 7.254231,109.457176 
	C26.576971,108.428360 45.806976,108.602997 65.424744,109.961029 
	C65.865135,113.359459 65.899437,116.721588 65.883850,120.539200 
z"/>
<path fill="#B2D830" opacity="1.000000" stroke="none" 
	d="
M65.834930,192.558655 
	C59.148373,192.333542 52.529198,191.432877 45.880341,191.056320 
	C36.329197,190.515396 26.757307,190.184113 17.192373,190.135223 
	C14.178175,190.119797 11.157876,191.298126 7.780648,191.976837 
	C7.367642,189.978088 7.314358,187.932617 7.775709,185.448669 
	C27.452606,185.010483 46.614868,185.010757 65.777130,185.011047 
	C65.814438,187.379776 65.851746,189.748489 65.834930,192.558655 
z"/>
<path fill="#A9D732" opacity="1.000000" stroke="none" 
	d="
M65.827400,184.638458 
	C46.614868,185.010757 27.452606,185.010483 7.850811,185.016632 
	C7.360284,183.955765 7.309289,182.888458 7.772697,181.417877 
	C27.458151,181.348953 46.629200,181.683304 65.800247,182.017639 
	C65.826050,182.767059 65.851860,183.516464 65.827400,184.638458 
z"/>
<path fill="#A1D537" opacity="1.000000" stroke="none" 
	d="
M65.854637,181.618408 
	C46.629200,181.683304 27.458151,181.348953 7.846819,181.022949 
	C7.356278,180.271255 7.306022,179.511246 7.332103,178.377213 
	C23.979057,177.678528 40.549015,177.305801 57.120972,177.078705 
	C59.745136,177.042740 62.378304,177.663574 65.413368,177.995819 
	C65.849297,179.080307 65.879166,180.149734 65.854637,181.618408 
z"/>
<path fill="#429B87" opacity="1.000000" stroke="none" 
	d="
M82.976547,181.009033 
	C82.976547,181.009033 82.559486,180.988113 82.351181,180.973938 
	C82.109795,179.900391 82.076714,178.841034 82.264908,177.069733 
	C82.654045,174.905197 82.821907,173.452606 82.989769,172.000000 
	C92.742035,166.825150 102.834824,171.703766 113.172264,170.988342 
	C113.666039,173.362030 113.725815,175.739746 113.308411,178.598755 
	C109.215927,179.373032 105.477486,180.391312 102.011818,179.802933 
	C95.473289,178.692886 89.214600,178.881165 82.976547,181.009033 
z"/>
<path fill="#5C9F8E" opacity="1.000000" stroke="none" 
	d="
M82.984123,171.652863 
	C82.821907,173.452606 82.654045,174.905197 82.307495,176.673645 
	C82.098701,174.294739 82.068611,171.599976 82.110138,168.461487 
	C82.447334,169.113739 82.712906,170.209717 82.984123,171.652863 
z"/>
<path fill="#477A9E" opacity="1.000000" stroke="none" 
	d="
M9.200377,49.278046 
	C10.739931,48.006687 12.419080,46.303562 14.231404,46.147552 
	C21.642744,45.509586 29.096409,45.033283 36.531414,45.072990 
	C49.613380,45.142857 62.694603,45.904636 75.773102,45.831837 
	C82.018906,45.797077 88.258469,44.519314 94.498856,43.787434 
	C95.314438,43.691780 96.178024,43.220604 96.918358,43.383236 
	C114.260719,47.192791 131.684631,43.484463 149.525024,43.999416 
	C150.142624,44.249218 150.315353,44.482750 150.667023,44.851837 
	C150.846741,46.394363 150.869934,47.784763 150.824921,49.587616 
	C141.225540,49.986233 131.693085,50.068855 122.163551,49.937836 
	C104.137840,49.690014 86.113823,49.100166 68.089088,49.099495 
	C60.000072,49.099194 51.918755,50.362255 43.819267,50.698277 
	C38.419083,50.922306 32.992931,50.429829 27.578493,50.432812 
	C23.970072,50.434803 20.355461,50.953663 16.755695,50.844173 
	C14.293432,50.769279 11.851966,50.010578 9.200377,49.278046 
z"/>
<path fill="#ED4567" opacity="1.000000" stroke="none" 
	d="
M224.549454,146.000366 
	C225.000610,148.941437 225.000610,151.882263 225.000610,155.354370 
	C219.583771,155.053513 214.850616,154.565338 210.117966,154.570160 
	C196.069672,154.584488 182.021561,154.792984 167.564987,154.961975 
	C167.126755,151.318298 167.096924,147.638214 167.125427,143.504333 
	C174.789917,143.328415 182.396149,143.604736 190.002228,143.884689 
	C197.247742,144.151382 204.498505,144.325256 211.736496,144.728012 
	C215.867889,144.957901 219.978394,145.563629 224.549454,146.000366 
z"/>
<path fill="#CA467A" opacity="1.000000" stroke="none" 
	d="
M224.607437,168.997833 
	C225.198502,172.072220 223.569214,172.967102 220.730255,173.027176 
	C209.141479,173.272400 197.553772,173.607773 185.969925,174.027359 
	C181.511780,174.188828 177.063385,174.902908 172.613876,174.872726 
	C170.935989,174.861359 169.267532,173.457947 167.384857,172.402008 
	C167.138565,171.331543 167.102188,170.548157 167.117676,169.374527 
	C170.902939,169.282028 174.643448,169.902359 178.368378,169.819763 
	C192.011963,169.517227 205.649734,168.960114 219.291489,168.559692 
	C220.925522,168.511749 222.570526,168.836792 224.607437,168.997833 
z"/>
<path fill="#DC4471" opacity="1.000000" stroke="none" 
	d="
M167.991211,159.011932 
	C183.580032,159.008209 199.169128,158.954269 214.757416,159.042999 
	C217.891617,159.060822 221.022720,159.620514 224.574097,159.962738 
	C225.202393,163.079193 223.568436,164.147491 220.713181,163.996567 
	C209.445129,163.401031 198.180878,162.650925 186.904633,162.325455 
	C180.789917,162.148941 174.653839,162.712494 168.023544,162.887146 
	C167.519684,162.832092 167.603287,162.523178 167.769699,162.086182 
	C167.954483,160.770096 167.972839,159.891006 167.991211,159.011932 
z"/>
<path fill="#D34576" opacity="1.000000" stroke="none" 
	d="
M167.783875,159.007111 
	C167.972839,159.891006 167.954483,160.770096 167.929688,162.089569 
	C167.636505,161.603256 167.349762,160.676544 167.112427,159.371948 
	C167.161819,158.994034 167.576523,159.002304 167.783875,159.007111 
z"/>
<path fill="#418E90" opacity="1.000000" stroke="none" 
	d="
M83.389351,197.980820 
	C82.974617,196.272141 82.972435,194.558929 83.382538,192.390106 
	C93.730125,191.287628 103.665436,190.640747 113.600746,189.993866 
	C113.693352,192.033920 113.785950,194.073959 113.924934,196.549103 
	C113.797035,196.971375 113.622765,196.958557 113.186310,196.961334 
	C103.187202,196.449860 93.437889,195.561859 83.389351,197.980820 
z"/>
<path fill="#41958A" opacity="1.000000" stroke="none" 
	d="
M113.687332,189.543457 
	C103.665436,190.640747 93.730125,191.287628 83.387955,191.961487 
	C82.979950,188.633301 82.978790,185.278122 82.977097,181.466003 
	C89.214600,178.881165 95.473289,178.692886 102.011818,179.802933 
	C105.477486,180.391312 109.215927,179.373032 113.223671,179.036438 
	C113.668716,182.359589 113.721313,185.726318 113.687332,189.543457 
z"/>
</svg>