<svg xmlns="http://www.w3.org/2000/svg" xmlns:xlink="http://www.w3.org/1999/xlink" width="500" zoomAndPan="disable" viewBox="0 0 375 374.999991" height="500" preserveAspectRatio="xMidYMid meet" version="1.0"><defs><clipPath id="TLLogo"><path d="M 24.78125 40.058594 L 344.777344 40.058594 L 344.777344 360.058594 L 24.78125 360.058594 Z M 24.78125 40.058594 " clip-rule="nonzero"/></clipPath><clipPath id="cf221dd134"><path d="M 184.78125 40.058594 C 96.414062 40.058594 24.78125 111.695312 24.78125 200.058594 C 24.78125 288.421875 96.414062 360.058594 184.78125 360.058594 C 273.144531 360.058594 344.777344 288.421875 344.777344 200.058594 C 344.777344 111.695312 273.144531 40.058594 184.78125 40.058594 " clip-rule="nonzero"/></clipPath><linearGradient x1="0.000000194229" gradientTransform="matrix(3.333298, 0, 0, 3.333298, 24.781828, 40.060429)" y1="0" x2="95.999994" gradientUnits="userSpaceOnUse" y2="0" id="66a8ba82d0"><stop stop-opacity="1" stop-color="rgb(99.998474%, 34.098816%, 34.098816%)" offset="0"/><stop stop-opacity="1" stop-color="rgb(99.822998%, 34.091187%, 34.356689%)" offset="0.00390625"/><stop stop-opacity="1" stop-color="rgb(99.647522%, 34.085083%, 34.614563%)" offset="0.0078125"/><stop stop-opacity="1" stop-color="rgb(99.47052%, 34.077454%, 34.870911%)" offset="0.0117188"/><stop stop-opacity="1" stop-color="rgb(99.295044%, 34.069824%, 35.128784%)" offset="0.015625"/><stop stop-opacity="1" stop-color="rgb(99.118042%, 34.062195%, 35.386658%)" offset="0.0195312"/><stop stop-opacity="1" stop-color="rgb(98.942566%, 34.054565%, 35.644531%)" offset="0.0234375"/><stop stop-opacity="1" stop-color="rgb(98.765564%, 34.046936%, 35.900879%)" offset="0.0273438"/><stop stop-opacity="1" stop-color="rgb(98.590088%, 34.039307%, 36.158752%)" offset="0.03125"/><stop stop-opacity="1" stop-color="rgb(98.413086%, 34.031677%, 36.4151%)" offset="0.0351562"/><stop stop-opacity="1" stop-color="rgb(98.23761%, 34.025574%, 36.672974%)" offset="0.0390625"/><stop stop-opacity="1" stop-color="rgb(98.060608%, 34.017944%, 36.930847%)" offset="0.0429688"/><stop stop-opacity="1" stop-color="rgb(97.885132%, 34.010315%, 37.188721%)" offset="0.046875"/><stop stop-opacity="1" stop-color="rgb(97.70813%, 34.002686%, 37.445068%)" offset="0.0507812"/><stop stop-opacity="1" stop-color="rgb(97.532654%, 33.995056%, 37.702942%)" offset="0.0546875"/><stop stop-opacity="1" stop-color="rgb(97.355652%, 33.987427%, 37.960815%)" offset="0.0585938"/><stop stop-opacity="1" stop-color="rgb(97.180176%, 33.979797%, 38.218689%)" offset="0.0625"/><stop stop-opacity="1" stop-color="rgb(97.003174%, 33.972168%, 38.475037%)" offset="0.0664062"/><stop stop-opacity="1" stop-color="rgb(96.827698%, 33.966064%, 38.73291%)" offset="0.0703125"/><stop stop-opacity="1" stop-color="rgb(96.650696%, 33.958435%, 38.989258%)" offset="0.0742188"/><stop stop-opacity="1" stop-color="rgb(96.47522%, 33.950806%, 39.247131%)" offset="0.078125"/><stop stop-opacity="1" stop-color="rgb(96.298218%, 33.943176%, 39.505005%)" offset="0.0820312"/><stop stop-opacity="1" stop-color="rgb(96.122742%, 33.935547%, 39.762878%)" offset="0.0859375"/><stop stop-opacity="1" stop-color="rgb(95.947266%, 33.927917%, 40.019226%)" offset="0.0898438"/><stop stop-opacity="1" stop-color="rgb(95.77179%, 33.921814%, 40.2771%)" offset="0.09375"/><stop stop-opacity="1" stop-color="rgb(95.594788%, 33.914185%, 40.534973%)" offset="0.0976562"/><stop stop-opacity="1" stop-color="rgb(95.419312%, 33.906555%, 40.792847%)" offset="0.101562"/><stop stop-opacity="1" stop-color="rgb(95.24231%, 33.898926%, 41.049194%)" offset="0.105469"/><stop stop-opacity="1" stop-color="rgb(95.066833%, 33.891296%, 41.307068%)" offset="0.109375"/><stop stop-opacity="1" stop-color="rgb(94.889832%, 33.883667%, 41.563416%)" offset="0.113281"/><stop stop-opacity="1" stop-color="rgb(94.714355%, 33.876038%, 41.821289%)" offset="0.117188"/><stop stop-opacity="1" stop-color="rgb(94.537354%, 33.868408%, 42.079163%)" offset="0.121094"/><stop stop-opacity="1" stop-color="rgb(94.361877%, 33.862305%, 42.337036%)" offset="0.125"/><stop stop-opacity="1" stop-color="rgb(94.184875%, 33.854675%, 42.593384%)" offset="0.128906"/><stop stop-opacity="1" stop-color="rgb(94.009399%, 33.847046%, 42.851257%)" offset="0.132812"/><stop stop-opacity="1" stop-color="rgb(93.832397%, 33.839417%, 43.109131%)" offset="0.136719"/><stop stop-opacity="1" stop-color="rgb(93.656921%, 33.831787%, 43.367004%)" offset="0.140625"/><stop stop-opacity="1" stop-color="rgb(93.479919%, 33.824158%, 43.623352%)" offset="0.144531"/><stop stop-opacity="1" stop-color="rgb(93.304443%, 33.816528%, 43.881226%)" offset="0.148438"/><stop stop-opacity="1" stop-color="rgb(93.127441%, 33.808899%, 44.137573%)" offset="0.152344"/><stop stop-opacity="1" stop-color="rgb(92.951965%, 33.802795%, 44.395447%)" offset="0.15625"/><stop stop-opacity="1" stop-color="rgb(92.774963%, 33.795166%, 44.65332%)" offset="0.160156"/><stop stop-opacity="1" stop-color="rgb(92.599487%, 33.787537%, 44.911194%)" offset="0.164062"/><stop stop-opacity="1" stop-color="rgb(92.422485%, 33.779907%, 45.167542%)" offset="0.167969"/><stop stop-opacity="1" stop-color="rgb(92.247009%, 33.772278%, 45.425415%)" offset="0.171875"/><stop stop-opacity="1" stop-color="rgb(92.071533%, 33.764648%, 45.683289%)" offset="0.175781"/><stop stop-opacity="1" stop-color="rgb(91.896057%, 33.758545%, 45.941162%)" offset="0.179688"/><stop stop-opacity="1" stop-color="rgb(91.719055%, 33.750916%, 46.19751%)" offset="0.183594"/><stop stop-opacity="1" stop-color="rgb(91.543579%, 33.743286%, 46.455383%)" offset="0.1875"/><stop stop-opacity="1" stop-color="rgb(91.366577%, 33.735657%, 46.711731%)" offset="0.191406"/><stop stop-opacity="1" stop-color="rgb(91.191101%, 33.728027%, 46.969604%)" offset="0.195312"/><stop stop-opacity="1" stop-color="rgb(91.014099%, 33.720398%, 47.227478%)" offset="0.199219"/><stop stop-opacity="1" stop-color="rgb(90.838623%, 33.712769%, 47.485352%)" offset="0.203125"/><stop stop-opacity="1" stop-color="rgb(90.661621%, 33.705139%, 47.741699%)" offset="0.207031"/><stop stop-opacity="1" stop-color="rgb(90.486145%, 33.699036%, 47.999573%)" offset="0.210938"/><stop stop-opacity="1" stop-color="rgb(90.309143%, 33.691406%, 48.257446%)" offset="0.214844"/><stop stop-opacity="1" stop-color="rgb(90.133667%, 33.683777%, 48.51532%)" offset="0.21875"/><stop stop-opacity="1" stop-color="rgb(89.956665%, 33.676147%, 48.771667%)" offset="0.222656"/><stop stop-opacity="1" stop-color="rgb(89.781189%, 33.668518%, 49.029541%)" offset="0.226562"/><stop stop-opacity="1" stop-color="rgb(89.604187%, 33.660889%, 49.287415%)" offset="0.230469"/><stop stop-opacity="1" stop-color="rgb(89.428711%, 33.653259%, 49.545288%)" offset="0.234375"/><stop stop-opacity="1" stop-color="rgb(89.251709%, 33.64563%, 49.801636%)" offset="0.238281"/><stop stop-opacity="1" stop-color="rgb(89.076233%, 33.639526%, 50.059509%)" offset="0.242188"/><stop stop-opacity="1" stop-color="rgb(88.899231%, 33.631897%, 50.315857%)" offset="0.246094"/><stop stop-opacity="1" stop-color="rgb(88.723755%, 33.624268%, 50.57373%)" offset="0.25"/><stop stop-opacity="1" stop-color="rgb(88.546753%, 33.616638%, 50.831604%)" offset="0.253906"/><stop stop-opacity="1" stop-color="rgb(88.371277%, 33.609009%, 51.089478%)" offset="0.257813"/><stop stop-opacity="1" stop-color="rgb(88.194275%, 33.601379%, 51.345825%)" offset="0.261719"/><stop stop-opacity="1" stop-color="rgb(88.018799%, 33.595276%, 51.603699%)" offset="0.265625"/><stop stop-opacity="1" stop-color="rgb(87.843323%, 33.587646%, 51.861572%)" offset="0.269531"/><stop stop-opacity="1" stop-color="rgb(87.667847%, 33.580017%, 52.119446%)" offset="0.273438"/><stop stop-opacity="1" stop-color="rgb(87.490845%, 33.572388%, 52.375793%)" offset="0.277344"/><stop stop-opacity="1" stop-color="rgb(87.315369%, 33.564758%, 52.633667%)" offset="0.28125"/><stop stop-opacity="1" stop-color="rgb(87.138367%, 33.557129%, 52.890015%)" offset="0.285156"/><stop stop-opacity="1" stop-color="rgb(86.962891%, 33.5495%, 53.147888%)" offset="0.289063"/><stop stop-opacity="1" stop-color="rgb(86.785889%, 33.54187%, 53.405762%)" offset="0.292969"/><stop stop-opacity="1" stop-color="rgb(86.610413%, 33.535767%, 53.663635%)" offset="0.296875"/><stop stop-opacity="1" stop-color="rgb(86.433411%, 33.528137%, 53.919983%)" offset="0.300781"/><stop stop-opacity="1" stop-color="rgb(86.257935%, 33.520508%, 54.177856%)" offset="0.304688"/><stop stop-opacity="1" stop-color="rgb(86.080933%, 33.512878%, 54.43573%)" offset="0.308594"/><stop stop-opacity="1" stop-color="rgb(85.905457%, 33.505249%, 54.693604%)" offset="0.3125"/><stop stop-opacity="1" stop-color="rgb(85.728455%, 33.49762%, 54.949951%)" offset="0.316406"/><stop stop-opacity="1" stop-color="rgb(85.552979%, 33.48999%, 55.207825%)" offset="0.320313"/><stop stop-opacity="1" stop-color="rgb(85.375977%, 33.482361%, 55.464172%)" offset="0.324219"/><stop stop-opacity="1" stop-color="rgb(85.2005%, 33.476257%, 55.722046%)" offset="0.328125"/><stop stop-opacity="1" stop-color="rgb(85.023499%, 33.468628%, 55.979919%)" offset="0.332031"/><stop stop-opacity="1" stop-color="rgb(84.848022%, 33.460999%, 56.237793%)" offset="0.335938"/><stop stop-opacity="1" stop-color="rgb(84.671021%, 33.453369%, 56.494141%)" offset="0.339844"/><stop stop-opacity="1" stop-color="rgb(84.495544%, 33.44574%, 56.752014%)" offset="0.34375"/><stop stop-opacity="1" stop-color="rgb(84.318542%, 33.43811%, 57.009888%)" offset="0.347656"/><stop stop-opacity="1" stop-color="rgb(84.143066%, 33.432007%, 57.267761%)" offset="0.351563"/><stop stop-opacity="1" stop-color="rgb(83.96759%, 33.424377%, 57.524109%)" offset="0.355469"/><stop stop-opacity="1" stop-color="rgb(83.792114%, 33.416748%, 57.781982%)" offset="0.359375"/><stop stop-opacity="1" stop-color="rgb(83.615112%, 33.409119%, 58.03833%)" offset="0.363281"/><stop stop-opacity="1" stop-color="rgb(83.439636%, 33.401489%, 58.296204%)" offset="0.367188"/><stop stop-opacity="1" stop-color="rgb(83.262634%, 33.39386%, 58.554077%)" offset="0.371094"/><stop stop-opacity="1" stop-color="rgb(83.087158%, 33.38623%, 58.811951%)" offset="0.375"/><stop stop-opacity="1" stop-color="rgb(82.910156%, 33.378601%, 59.068298%)" offset="0.378906"/><stop stop-opacity="1" stop-color="rgb(82.73468%, 33.372498%, 59.326172%)" offset="0.382813"/><stop stop-opacity="1" stop-color="rgb(82.557678%, 33.364868%, 59.584045%)" offset="0.386719"/><stop stop-opacity="1" stop-color="rgb(82.382202%, 33.357239%, 59.841919%)" offset="0.390625"/><stop stop-opacity="1" stop-color="rgb(82.2052%, 33.349609%, 60.098267%)" offset="0.394531"/><stop stop-opacity="1" stop-color="rgb(82.029724%, 33.34198%, 60.35614%)" offset="0.398438"/><stop stop-opacity="1" stop-color="rgb(81.852722%, 33.334351%, 60.612488%)" offset="0.402344"/><stop stop-opacity="1" stop-color="rgb(81.677246%, 33.326721%, 60.870361%)" offset="0.40625"/><stop stop-opacity="1" stop-color="rgb(81.500244%, 33.319092%, 61.128235%)" offset="0.410156"/><stop stop-opacity="1" stop-color="rgb(81.324768%, 33.312988%, 61.386108%)" offset="0.414063"/><stop stop-opacity="1" stop-color="rgb(81.147766%, 33.305359%, 61.642456%)" offset="0.417969"/><stop stop-opacity="1" stop-color="rgb(80.97229%, 33.297729%, 61.90033%)" offset="0.421875"/><stop stop-opacity="1" stop-color="rgb(80.795288%, 33.2901%, 62.158203%)" offset="0.425781"/><stop stop-opacity="1" stop-color="rgb(80.619812%, 33.282471%, 62.416077%)" offset="0.429688"/><stop stop-opacity="1" stop-color="rgb(80.44281%, 33.274841%, 62.672424%)" offset="0.433594"/><stop stop-opacity="1" stop-color="rgb(80.267334%, 33.268738%, 62.930298%)" offset="0.4375"/><stop stop-opacity="1" stop-color="rgb(80.091858%, 33.261108%, 63.188171%)" offset="0.441406"/><stop stop-opacity="1" stop-color="rgb(79.916382%, 33.253479%, 63.446045%)" offset="0.445313"/><stop stop-opacity="1" stop-color="rgb(79.73938%, 33.24585%, 63.702393%)" offset="0.449219"/><stop stop-opacity="1" stop-color="rgb(79.563904%, 33.23822%, 63.960266%)" offset="0.453125"/><stop stop-opacity="1" stop-color="rgb(79.386902%, 33.230591%, 64.216614%)" offset="0.457031"/><stop stop-opacity="1" stop-color="rgb(79.211426%, 33.222961%, 64.474487%)" offset="0.460938"/><stop stop-opacity="1" stop-color="rgb(79.034424%, 33.215332%, 64.732361%)" offset="0.464844"/><stop stop-opacity="1" stop-color="rgb(78.858948%, 33.209229%, 64.990234%)" offset="0.46875"/><stop stop-opacity="1" stop-color="rgb(78.681946%, 33.201599%, 65.246582%)" offset="0.472656"/><stop stop-opacity="1" stop-color="rgb(78.50647%, 33.19397%, 65.504456%)" offset="0.476563"/><stop stop-opacity="1" stop-color="rgb(78.329468%, 33.18634%, 65.762329%)" offset="0.480469"/><stop stop-opacity="1" stop-color="rgb(78.153992%, 33.178711%, 66.020203%)" offset="0.484375"/><stop stop-opacity="1" stop-color="rgb(77.97699%, 33.171082%, 66.27655%)" offset="0.488281"/><stop stop-opacity="1" stop-color="rgb(77.801514%, 33.163452%, 66.534424%)" offset="0.492188"/><stop stop-opacity="1" stop-color="rgb(77.624512%, 33.155823%, 66.790771%)" offset="0.496094"/><stop stop-opacity="1" stop-color="rgb(77.449036%, 33.149719%, 67.048645%)" offset="0.5"/><stop stop-opacity="1" stop-color="rgb(77.272034%, 33.14209%, 67.306519%)" offset="0.503906"/><stop stop-opacity="1" stop-color="rgb(77.096558%, 33.13446%, 67.564392%)" offset="0.507812"/><stop stop-opacity="1" stop-color="rgb(76.919556%, 33.126831%, 67.82074%)" offset="0.511719"/><stop stop-opacity="1" stop-color="rgb(76.74408%, 33.119202%, 68.078613%)" offset="0.515625"/><stop stop-opacity="1" stop-color="rgb(76.567078%, 33.111572%, 68.336487%)" offset="0.519531"/><stop stop-opacity="1" stop-color="rgb(76.391602%, 33.105469%, 68.59436%)" offset="0.523438"/><stop stop-opacity="1" stop-color="rgb(76.2146%, 33.097839%, 68.850708%)" offset="0.527344"/><stop stop-opacity="1" stop-color="rgb(76.039124%, 33.09021%, 69.108582%)" offset="0.53125"/><stop stop-opacity="1" stop-color="rgb(75.863647%, 33.082581%, 69.364929%)" offset="0.535156"/><stop stop-opacity="1" stop-color="rgb(75.688171%, 33.074951%, 69.622803%)" offset="0.539063"/><stop stop-opacity="1" stop-color="rgb(75.511169%, 33.067322%, 69.880676%)" offset="0.542969"/><stop stop-opacity="1" stop-color="rgb(75.335693%, 33.059692%, 70.13855%)" offset="0.546875"/><stop stop-opacity="1" stop-color="rgb(75.158691%, 33.052063%, 70.394897%)" offset="0.550781"/><stop stop-opacity="1" stop-color="rgb(74.983215%, 33.045959%, 70.652771%)" offset="0.554688"/><stop stop-opacity="1" stop-color="rgb(74.806213%, 33.03833%, 70.910645%)" offset="0.558594"/><stop stop-opacity="1" stop-color="rgb(74.630737%, 33.030701%, 71.168518%)" offset="0.5625"/><stop stop-opacity="1" stop-color="rgb(74.453735%, 33.023071%, 71.424866%)" offset="0.566406"/><stop stop-opacity="1" stop-color="rgb(74.278259%, 33.015442%, 71.682739%)" offset="0.570313"/><stop stop-opacity="1" stop-color="rgb(74.101257%, 33.007812%, 71.939087%)" offset="0.574219"/><stop stop-opacity="1" stop-color="rgb(73.925781%, 33.000183%, 72.19696%)" offset="0.578125"/><stop stop-opacity="1" stop-color="rgb(73.748779%, 32.992554%, 72.454834%)" offset="0.582031"/><stop stop-opacity="1" stop-color="rgb(73.573303%, 32.98645%, 72.712708%)" offset="0.585938"/><stop stop-opacity="1" stop-color="rgb(73.396301%, 32.978821%, 72.969055%)" offset="0.589844"/><stop stop-opacity="1" stop-color="rgb(73.220825%, 32.971191%, 73.226929%)" offset="0.59375"/><stop stop-opacity="1" stop-color="rgb(73.043823%, 32.963562%, 73.484802%)" offset="0.597656"/><stop stop-opacity="1" stop-color="rgb(72.868347%, 32.955933%, 73.742676%)" offset="0.601563"/><stop stop-opacity="1" stop-color="rgb(72.691345%, 32.948303%, 73.999023%)" offset="0.605469"/><stop stop-opacity="1" stop-color="rgb(72.515869%, 32.940674%, 74.256897%)" offset="0.609375"/><stop stop-opacity="1" stop-color="rgb(72.338867%, 32.933044%, 74.514771%)" offset="0.613281"/><stop stop-opacity="1" stop-color="rgb(72.163391%, 32.926941%, 74.772644%)" offset="0.617188"/><stop stop-opacity="1" stop-color="rgb(71.987915%, 32.919312%, 75.028992%)" offset="0.621094"/><stop stop-opacity="1" stop-color="rgb(71.812439%, 32.911682%, 75.286865%)" offset="0.625"/><stop stop-opacity="1" stop-color="rgb(71.635437%, 32.904053%, 75.543213%)" offset="0.628906"/><stop stop-opacity="1" stop-color="rgb(71.459961%, 32.896423%, 75.801086%)" offset="0.632813"/><stop stop-opacity="1" stop-color="rgb(71.282959%, 32.888794%, 76.05896%)" offset="0.636719"/><stop stop-opacity="1" stop-color="rgb(71.107483%, 32.88269%, 76.316833%)" offset="0.640625"/><stop stop-opacity="1" stop-color="rgb(70.930481%, 32.875061%, 76.573181%)" offset="0.644531"/><stop stop-opacity="1" stop-color="rgb(70.755005%, 32.867432%, 76.831055%)" offset="0.648438"/><stop stop-opacity="1" stop-color="rgb(70.578003%, 32.859802%, 77.088928%)" offset="0.652344"/><stop stop-opacity="1" stop-color="rgb(70.402527%, 32.852173%, 77.346802%)" offset="0.65625"/><stop stop-opacity="1" stop-color="rgb(70.225525%, 32.844543%, 77.603149%)" offset="0.660156"/><stop stop-opacity="1" stop-color="rgb(70.050049%, 32.836914%, 77.861023%)" offset="0.664063"/><stop stop-opacity="1" stop-color="rgb(69.873047%, 32.829285%, 78.117371%)" offset="0.667969"/><stop stop-opacity="1" stop-color="rgb(69.697571%, 32.823181%, 78.375244%)" offset="0.671875"/><stop stop-opacity="1" stop-color="rgb(69.520569%, 32.815552%, 78.633118%)" offset="0.675781"/><stop stop-opacity="1" stop-color="rgb(69.345093%, 32.807922%, 78.890991%)" offset="0.679688"/><stop stop-opacity="1" stop-color="rgb(69.168091%, 32.800293%, 79.147339%)" offset="0.683594"/><stop stop-opacity="1" stop-color="rgb(68.992615%, 32.792664%, 79.405212%)" offset="0.6875"/><stop stop-opacity="1" stop-color="rgb(68.815613%, 32.785034%, 79.663086%)" offset="0.691406"/><stop stop-opacity="1" stop-color="rgb(68.640137%, 32.777405%, 79.920959%)" offset="0.695313"/><stop stop-opacity="1" stop-color="rgb(68.463135%, 32.769775%, 80.177307%)" offset="0.699219"/><stop stop-opacity="1" stop-color="rgb(68.287659%, 32.763672%, 80.435181%)" offset="0.703125"/><stop stop-opacity="1" stop-color="rgb(68.112183%, 32.756042%, 80.691528%)" offset="0.707031"/><stop stop-opacity="1" stop-color="rgb(67.936707%, 32.748413%, 80.949402%)" offset="0.710938"/><stop stop-opacity="1" stop-color="rgb(67.759705%, 32.740784%, 81.207275%)" offset="0.714844"/><stop stop-opacity="1" stop-color="rgb(67.584229%, 32.733154%, 81.465149%)" offset="0.71875"/><stop stop-opacity="1" stop-color="rgb(67.407227%, 32.725525%, 81.721497%)" offset="0.722656"/><stop stop-opacity="1" stop-color="rgb(67.23175%, 32.719421%, 81.97937%)" offset="0.726563"/><stop stop-opacity="1" stop-color="rgb(67.054749%, 32.711792%, 82.237244%)" offset="0.730469"/><stop stop-opacity="1" stop-color="rgb(66.879272%, 32.704163%, 82.495117%)" offset="0.734375"/><stop stop-opacity="1" stop-color="rgb(66.702271%, 32.696533%, 82.751465%)" offset="0.738281"/><stop stop-opacity="1" stop-color="rgb(66.526794%, 32.688904%, 83.009338%)" offset="0.742188"/><stop stop-opacity="1" stop-color="rgb(66.349792%, 32.681274%, 83.265686%)" offset="0.746094"/><stop stop-opacity="1" stop-color="rgb(66.174316%, 32.673645%, 83.52356%)" offset="0.75"/><stop stop-opacity="1" stop-color="rgb(65.997314%, 32.666016%, 83.781433%)" offset="0.753906"/><stop stop-opacity="1" stop-color="rgb(65.821838%, 32.659912%, 84.039307%)" offset="0.757812"/><stop stop-opacity="1" stop-color="rgb(65.644836%, 32.652283%, 84.295654%)" offset="0.761719"/><stop stop-opacity="1" stop-color="rgb(65.46936%, 32.644653%, 84.553528%)" offset="0.765625"/><stop stop-opacity="1" stop-color="rgb(65.292358%, 32.637024%, 84.811401%)" offset="0.769531"/><stop stop-opacity="1" stop-color="rgb(65.116882%, 32.629395%, 85.069275%)" offset="0.773438"/><stop stop-opacity="1" stop-color="rgb(64.93988%, 32.621765%, 85.325623%)" offset="0.777344"/><stop stop-opacity="1" stop-color="rgb(64.764404%, 32.614136%, 85.583496%)" offset="0.78125"/><stop stop-opacity="1" stop-color="rgb(64.587402%, 32.606506%, 85.839844%)" offset="0.785156"/><stop stop-opacity="1" stop-color="rgb(64.411926%, 32.600403%, 86.097717%)" offset="0.789062"/><stop stop-opacity="1" stop-color="rgb(64.234924%, 32.592773%, 86.355591%)" offset="0.792969"/><stop stop-opacity="1" stop-color="rgb(64.059448%, 32.585144%, 86.613464%)" offset="0.796875"/><stop stop-opacity="1" stop-color="rgb(63.883972%, 32.577515%, 86.869812%)" offset="0.800781"/><stop stop-opacity="1" stop-color="rgb(63.708496%, 32.569885%, 87.127686%)" offset="0.804688"/><stop stop-opacity="1" stop-color="rgb(63.531494%, 32.562256%, 87.385559%)" offset="0.808594"/><stop stop-opacity="1" stop-color="rgb(63.356018%, 32.556152%, 87.643433%)" offset="0.8125"/><stop stop-opacity="1" stop-color="rgb(63.179016%, 32.548523%, 87.89978%)" offset="0.816406"/><stop stop-opacity="1" stop-color="rgb(63.00354%, 32.540894%, 88.157654%)" offset="0.820312"/><stop stop-opacity="1" stop-color="rgb(62.826538%, 32.533264%, 88.415527%)" offset="0.824219"/><stop stop-opacity="1" stop-color="rgb(62.651062%, 32.525635%, 88.673401%)" offset="0.828125"/><stop stop-opacity="1" stop-color="rgb(62.47406%, 32.518005%, 88.929749%)" offset="0.832031"/><stop stop-opacity="1" stop-color="rgb(62.298584%, 32.510376%, 89.187622%)" offset="0.835938"/><stop stop-opacity="1" stop-color="rgb(62.121582%, 32.502747%, 89.44397%)" offset="0.839844"/><stop stop-opacity="1" stop-color="rgb(61.946106%, 32.496643%, 89.701843%)" offset="0.84375"/><stop stop-opacity="1" stop-color="rgb(61.769104%, 32.489014%, 89.959717%)" offset="0.847656"/><stop stop-opacity="1" stop-color="rgb(61.593628%, 32.481384%, 90.21759%)" offset="0.851562"/><stop stop-opacity="1" stop-color="rgb(61.416626%, 32.473755%, 90.473938%)" offset="0.855469"/><stop stop-opacity="1" stop-color="rgb(61.24115%, 32.466125%, 90.731812%)" offset="0.859375"/><stop stop-opacity="1" stop-color="rgb(61.064148%, 32.458496%, 90.989685%)" offset="0.863281"/><stop stop-opacity="1" stop-color="rgb(60.888672%, 32.450867%, 91.247559%)" offset="0.867188"/><stop stop-opacity="1" stop-color="rgb(60.71167%, 32.443237%, 91.503906%)" offset="0.871094"/><stop stop-opacity="1" stop-color="rgb(60.536194%, 32.437134%, 91.76178%)" offset="0.875"/><stop stop-opacity="1" stop-color="rgb(60.359192%, 32.429504%, 92.018127%)" offset="0.878906"/><stop stop-opacity="1" stop-color="rgb(60.183716%, 32.421875%, 92.276001%)" offset="0.882812"/><stop stop-opacity="1" stop-color="rgb(60.00824%, 32.414246%, 92.533875%)" offset="0.886719"/><stop stop-opacity="1" stop-color="rgb(59.832764%, 32.406616%, 92.791748%)" offset="0.890625"/><stop stop-opacity="1" stop-color="rgb(59.655762%, 32.398987%, 93.048096%)" offset="0.894531"/><stop stop-opacity="1" stop-color="rgb(59.480286%, 32.392883%, 93.305969%)" offset="0.898438"/><stop stop-opacity="1" stop-color="rgb(59.303284%, 32.385254%, 93.563843%)" offset="0.902344"/><stop stop-opacity="1" stop-color="rgb(59.127808%, 32.377625%, 93.821716%)" offset="0.90625"/><stop stop-opacity="1" stop-color="rgb(58.950806%, 32.369995%, 94.078064%)" offset="0.910156"/><stop stop-opacity="1" stop-color="rgb(58.77533%, 32.362366%, 94.335938%)" offset="0.914062"/><stop stop-opacity="1" stop-color="rgb(58.598328%, 32.354736%, 94.592285%)" offset="0.917969"/><stop stop-opacity="1" stop-color="rgb(58.422852%, 32.347107%, 94.850159%)" offset="0.921875"/><stop stop-opacity="1" stop-color="rgb(58.24585%, 32.339478%, 95.108032%)" offset="0.925781"/><stop stop-opacity="1" stop-color="rgb(58.070374%, 32.333374%, 95.365906%)" offset="0.929688"/><stop stop-opacity="1" stop-color="rgb(57.893372%, 32.325745%, 95.622253%)" offset="0.933594"/><stop stop-opacity="1" stop-color="rgb(57.717896%, 32.318115%, 95.880127%)" offset="0.9375"/><stop stop-opacity="1" stop-color="rgb(57.540894%, 32.310486%, 96.138%)" offset="0.941406"/><stop stop-opacity="1" stop-color="rgb(57.365417%, 32.302856%, 96.395874%)" offset="0.945312"/><stop stop-opacity="1" stop-color="rgb(57.188416%, 32.295227%, 96.652222%)" offset="0.949219"/><stop stop-opacity="1" stop-color="rgb(57.012939%, 32.287598%, 96.910095%)" offset="0.953125"/><stop stop-opacity="1" stop-color="rgb(56.835938%, 32.279968%, 97.166443%)" offset="0.957031"/><stop stop-opacity="1" stop-color="rgb(56.660461%, 32.273865%, 97.424316%)" offset="0.960938"/><stop stop-opacity="1" stop-color="rgb(56.483459%, 32.266235%, 97.68219%)" offset="0.964844"/><stop stop-opacity="1" stop-color="rgb(56.307983%, 32.258606%, 97.940063%)" offset="0.96875"/><stop stop-opacity="1" stop-color="rgb(56.132507%, 32.250977%, 98.196411%)" offset="0.972656"/><stop stop-opacity="1" stop-color="rgb(55.957031%, 32.243347%, 98.454285%)" offset="0.976562"/><stop stop-opacity="1" stop-color="rgb(55.780029%, 32.235718%, 98.712158%)" offset="0.980469"/><stop stop-opacity="1" stop-color="rgb(55.604553%, 32.229614%, 98.970032%)" offset="0.984375"/><stop stop-opacity="1" stop-color="rgb(55.427551%, 32.221985%, 99.226379%)" offset="0.988281"/><stop stop-opacity="1" stop-color="rgb(55.252075%, 32.214355%, 99.484253%)" offset="0.992188"/><stop stop-opacity="1" stop-color="rgb(55.075073%, 32.206726%, 99.740601%)" offset="0.996094"/><stop stop-opacity="1" stop-color="rgb(54.899597%, 32.199097%, 99.998474%)" offset="1"/></linearGradient><clipPath id="69aa24ea8c"><path d="M 47 14 L 332 14 L 332 340 L 47 340 Z M 47 14 " clip-rule="nonzero"/></clipPath><clipPath id="62da2788d8"><path d="M 170.472656 -52.019531 L 409.382812 81.371094 L 234.417969 394.742188 L -4.488281 261.355469 Z M 170.472656 -52.019531 " clip-rule="nonzero"/></clipPath><clipPath id="8bddb9dd58"><path d="M 170.402344 -52.058594 L 409.308594 81.328125 L 234.347656 394.703125 L -4.5625 261.3125 Z M 170.402344 -52.058594 " clip-rule="nonzero"/></clipPath><clipPath id="5edde7be61"><path d="M 68 153 L 267 153 L 267 319 L 68 319 Z M 68 153 " clip-rule="nonzero"/></clipPath><clipPath id="1876ebdb9f"><path d="M 170.472656 -52.019531 L 409.382812 81.371094 L 234.417969 394.742188 L -4.488281 261.355469 Z M 170.472656 -52.019531 " clip-rule="nonzero"/></clipPath><clipPath id="7f2705af45"><path d="M 170.402344 -52.058594 L 409.308594 81.328125 L 234.347656 394.703125 L -4.5625 261.3125 Z M 170.402344 -52.058594 " clip-rule="nonzero"/></clipPath><clipPath id="9382f4be85"><path d="M 87 92 L 298 92 L 298 275 L 87 275 Z M 87 92 " clip-rule="nonzero"/></clipPath><clipPath id="e8744e058f"><path d="M 170.472656 -52.019531 L 409.382812 81.371094 L 234.417969 394.742188 L -4.488281 261.355469 Z M 170.472656 -52.019531 " clip-rule="nonzero"/></clipPath><clipPath id="294de9201d"><path d="M 170.402344 -52.058594 L 409.308594 81.328125 L 234.347656 394.703125 L -4.5625 261.3125 Z M 170.402344 -52.058594 " clip-rule="nonzero"/></clipPath><clipPath id="e7bd65e40f"><path d="M 253 69 L 280 69 L 280 96 L 253 96 Z M 253 69 " clip-rule="nonzero"/></clipPath><clipPath id="2aff30ae56"><path d="M 170.472656 -52.019531 L 409.382812 81.371094 L 234.417969 394.742188 L -4.488281 261.355469 Z M 170.472656 -52.019531 " clip-rule="nonzero"/></clipPath><clipPath id="74bc2b89a4"><path d="M 170.402344 -52.058594 L 409.308594 81.328125 L 234.347656 394.703125 L -4.5625 261.3125 Z M 170.402344 -52.058594 " clip-rule="nonzero"/></clipPath><clipPath id="76b36e6585"><path d="M 251 38 L 271 38 L 271 58 L 251 58 Z M 251 38 " clip-rule="nonzero"/></clipPath><clipPath id="8069c2ca35"><path d="M 170.472656 -52.019531 L 409.382812 81.371094 L 234.417969 394.742188 L -4.488281 261.355469 Z M 170.472656 -52.019531 " clip-rule="nonzero"/></clipPath><clipPath id="4954fc2ba8"><path d="M 170.402344 -52.058594 L 409.308594 81.328125 L 234.347656 394.703125 L -4.5625 261.3125 Z M 170.402344 -52.058594 " clip-rule="nonzero"/></clipPath><clipPath id="3d336b3996"><path d="M 271 22 L 288 22 L 288 39 L 271 39 Z M 271 22 " clip-rule="nonzero"/></clipPath><clipPath id="e05b0c253d"><path d="M 170.472656 -52.019531 L 409.382812 81.371094 L 234.417969 394.742188 L -4.488281 261.355469 Z M 170.472656 -52.019531 " clip-rule="nonzero"/></clipPath><clipPath id="01084a7d30"><path d="M 170.402344 -52.058594 L 409.308594 81.328125 L 234.347656 394.703125 L -4.5625 261.3125 Z M 170.402344 -52.058594 " clip-rule="nonzero"/></clipPath><clipPath id="7e3d26378d"><path d="M 263 4 L 276 4 L 276 17 L 263 17 Z M 263 4 " clip-rule="nonzero"/></clipPath><clipPath id="feb929b8bf"><path d="M 170.472656 -52.019531 L 409.382812 81.371094 L 234.417969 394.742188 L -4.488281 261.355469 Z M 170.472656 -52.019531 " clip-rule="nonzero"/></clipPath><clipPath id="93e470947f"><path d="M 170.402344 -52.058594 L 409.308594 81.328125 L 234.347656 394.703125 L -4.5625 261.3125 Z M 170.402344 -52.058594 " clip-rule="nonzero"/></clipPath></defs><g clip-path="url(#510bd21022)"><g clip-path="url(#cf221dd134)"><path fill="url(#66a8ba82d0)" d="M 24.78125 40.058594 L 24.78125 360.058594 L 344.777344 360.058594 L 344.777344 40.058594 Z M 24.78125 40.058594 " fill-rule="nonzero"/></g></g><g clip-path="url(#69aa24ea8c)"><g clip-path="url(#62da2788d8)"><g clip-path="url(#8bddb9dd58)"><path fill="#001849" d="M 287.972656 113.308594 C 324.71875 155.601562 332.992188 217.976562 304.136719 269.660156 C 267.332031 335.578125 183.992188 359.1875 118.011719 322.347656 C 52.074219 285.535156 28.441406 202.199219 65.246094 136.28125 C 94.101562 84.601562 151.542969 58.914062 206.828125 68.003906 L 217.730469 48.476562 L 207.808594 42.9375 C 200.46875 38.835938 197.796875 29.550781 201.894531 22.21875 C 205.96875 14.921875 215.292969 12.285156 222.636719 16.382812 L 253.050781 33.363281 C 250.476562 34.792969 248.183594 36.949219 246.648438 39.699219 C 242.234375 47.605469 245.097656 57.574219 252.960938 61.964844 C 254.402344 62.769531 255.851562 63.351562 257.382812 63.691406 C 253.667969 65.515625 250.492188 68.4375 248.320312 72.328125 C 242.640625 82.503906 246.289062 95.371094 256.46875 101.054688 C 266.648438 106.738281 279.472656 103.066406 285.15625 92.890625 C 290.835938 82.714844 287.230469 69.871094 277.050781 64.1875 C 274.601562 62.820312 272.019531 62.007812 269.457031 61.667969 C 271.785156 60.273438 273.777344 58.238281 275.21875 55.660156 C 276.753906 52.910156 277.429688 49.847656 277.292969 46.90625 L 323.65625 72.792969 C 330.953125 76.867188 333.59375 86.195312 329.523438 93.484375 C 325.425781 100.824219 316.121094 103.417969 308.777344 99.320312 L 298.859375 93.78125 L 287.957031 113.300781 Z M 154.847656 200.632812 C 177.355469 213.199219 185.425781 241.65625 172.863281 264.15625 C 160.300781 286.65625 131.867188 294.671875 109.359375 282.105469 C 86.855469 269.539062 78.808594 241.152344 91.367188 218.65625 C 103.925781 196.164062 132.34375 188.066406 154.847656 200.632812 Z M 154.847656 200.632812 " fill-opacity="1" fill-rule="evenodd"/></g></g></g><g clip-path="url(#5edde7be61)"><g clip-path="url(#1876ebdb9f)"><g clip-path="url(#7f2705af45)"><path fill="#ffbd59" d="M 77.621094 153.851562 C 54.507812 208.796875 75.921875 273.523438 129.183594 303.261719 C 174.585938 328.609375 229.421875 320.949219 266.085938 288.128906 C 235.425781 281.957031 200.136719 263.453125 178.058594 221.277344 C 152.328125 172.183594 106.679688 157.863281 77.621094 153.851562 Z M 105.773438 247.148438 C 110.449219 249.761719 112.125 255.683594 109.515625 260.355469 C 106.90625 265.03125 100.984375 266.703125 96.3125 264.09375 C 91.636719 261.484375 89.960938 255.5625 92.566406 250.890625 C 95.175781 246.222656 101.09375 244.539062 105.773438 247.148438 Z M 156.941406 253.550781 C 162.707031 256.769531 164.730469 264.03125 161.535156 269.753906 C 158.316406 275.519531 151.097656 277.5625 145.328125 274.34375 C 139.605469 271.148438 137.558594 263.929688 140.777344 258.164062 C 143.976562 252.4375 151.21875 250.355469 156.941406 253.550781 Z M 153.507812 203.4375 C 161.460938 207.875 164.300781 217.886719 159.859375 225.835938 C 155.421875 233.785156 145.386719 236.664062 137.4375 232.222656 C 129.484375 227.785156 126.628906 217.707031 131.066406 209.757812 C 135.503906 201.808594 145.558594 198.996094 153.507812 203.4375 Z M 153.507812 203.4375 " fill-opacity="1" fill-rule="evenodd"/><path fill="#ff914d" d="M 77.621094 153.851562 C 54.507812 208.796875 75.921875 273.523438 129.183594 303.261719 C 174.585938 328.609375 229.421875 320.949219 266.085938 288.128906 C 119.632812 330.535156 104.785156 216.171875 105.863281 160.453125 C 95.664062 157.046875 85.96875 155.019531 77.621094 153.851562 Z M 105.773438 247.148438 C 110.449219 249.761719 112.125 255.683594 109.515625 260.355469 C 106.90625 265.03125 100.984375 266.703125 96.3125 264.09375 C 91.636719 261.484375 89.960938 255.5625 92.566406 250.890625 C 95.175781 246.222656 101.09375 244.539062 105.773438 247.148438 Z M 105.773438 247.148438 " fill-opacity="1" fill-rule="evenodd"/></g></g></g><g clip-path="url(#9382f4be85)"><g clip-path="url(#e8744e058f)"><g clip-path="url(#294de9201d)"><path fill="#ffbd59" d="M 87.617188 140.976562 C 99.585938 115.335938 133.035156 92.183594 143.539062 132.605469 C 141.765625 133.625 140.285156 135.148438 139.214844 137.066406 C 135.996094 142.832031 138.0625 150.117188 143.828125 153.339844 C 149.597656 156.558594 156.882812 154.492188 160.101562 148.726562 C 163.320312 142.964844 161.253906 135.675781 155.488281 132.457031 C 154.828125 132.089844 154.195312 131.792969 153.515625 131.582031 C 151.609375 122.777344 146.679688 115.902344 141.644531 110.855469 C 159.0625 83.964844 197.332031 87.90625 211.765625 109.894531 C 207.503906 116.910156 203.75 126.507812 202.039062 139.53125 C 199.3125 140.414062 196.917969 142.34375 195.40625 145.050781 C 192.1875 150.816406 194.253906 158.105469 200.019531 161.324219 C 205.789062 164.542969 213.074219 162.476562 216.292969 156.714844 C 219.488281 150.992188 217.535156 143.824219 211.96875 140.546875 C 220.414062 76.445312 274.175781 124.800781 272.410156 145.53125 C 266.265625 145.648438 258.949219 146.957031 251.769531 151.082031 C 246.109375 148.496094 239.359375 150.625 236.285156 156.132812 C 233.066406 161.898438 235.132812 169.183594 240.898438 172.402344 C 246.664062 175.625 253.996094 173.582031 257.214844 167.816406 C 258.800781 164.976562 259.097656 161.769531 258.316406 158.863281 C 289.425781 143.277344 307.992188 186.308594 290.710938 210.585938 C 283.847656 207.675781 272.875 203.71875 262.820312 203.148438 C 261.914062 200.464844 260.023438 198.09375 257.359375 196.605469 C 251.59375 193.386719 244.304688 195.449219 241.085938 201.214844 C 237.867188 206.980469 239.910156 214.3125 245.675781 217.53125 C 251.398438 220.726562 258.621094 218.679688 261.902344 213.007812 C 303.507812 214.976562 294.242188 251.175781 273.566406 274.242188 C 210.5 264.414062 206.539062 224.386719 176.605469 190.539062 C 156.171875 167.453125 129.054688 148.582031 87.617188 140.976562 Z M 246.921875 204.480469 C 248.339844 201.949219 251.542969 201.039062 254.078125 202.457031 C 256.613281 203.871094 257.519531 207.074219 256.105469 209.609375 C 254.691406 212.144531 251.488281 213.050781 248.953125 211.636719 C 246.417969 210.214844 245.507812 207.015625 246.921875 204.480469 Z M 242.121094 159.398438 C 243.535156 156.863281 246.738281 155.957031 249.273438 157.371094 C 251.808594 158.789062 252.71875 161.992188 251.304688 164.527344 C 249.886719 167.058594 246.683594 167.96875 244.148438 166.550781 C 241.617188 165.128906 240.710938 161.925781 242.121094 159.398438 Z M 201.25 148.320312 C 202.664062 145.789062 205.867188 144.878906 208.402344 146.296875 C 210.9375 147.710938 211.847656 150.914062 210.433594 153.449219 C 209.015625 155.984375 205.8125 156.890625 203.277344 155.476562 C 200.742188 154.058594 199.835938 150.855469 201.25 148.320312 Z M 145.066406 140.335938 C 146.484375 137.800781 149.6875 136.890625 152.222656 138.308594 C 154.757812 139.722656 155.664062 142.925781 154.25 145.460938 C 152.835938 147.996094 149.632812 148.902344 147.097656 147.488281 C 144.558594 146.070312 143.652344 142.867188 145.066406 140.335938 Z M 145.066406 140.335938 " fill-opacity="1" fill-rule="evenodd"/></g></g></g><g clip-path="url(#e7bd65e40f)"><g clip-path="url(#2aff30ae56)"><g clip-path="url(#74bc2b89a4)"><path fill="#ffbd59" d="M 273.222656 71.042969 C 279.605469 74.605469 281.855469 82.679688 278.292969 89.058594 C 274.730469 95.441406 266.671875 97.761719 260.292969 94.199219 C 253.871094 90.613281 251.613281 82.535156 255.175781 76.15625 C 258.738281 69.773438 266.800781 67.453125 273.222656 71.042969 Z M 273.222656 71.042969 " fill-opacity="1" fill-rule="evenodd"/></g></g></g><g clip-path="url(#76b36e6585)"><g clip-path="url(#8069c2ca35)"><g clip-path="url(#4954fc2ba8)"><path fill="#ffbd59" d="M 265.523438 39.464844 C 270.066406 42 271.664062 47.765625 269.152344 52.265625 C 266.617188 56.804688 260.898438 58.429688 256.351562 55.890625 C 251.804688 53.351562 250.183594 47.636719 252.722656 43.089844 C 255.234375 38.585938 260.976562 36.925781 265.523438 39.464844 Z M 265.523438 39.464844 " fill-opacity="1" fill-rule="evenodd"/></g></g></g><g clip-path="url(#3d336b3996)"><g clip-path="url(#e05b0c253d)"><g clip-path="url(#01084a7d30)"><path fill="#ffbd59" d="M 283.425781 23.621094 C 287.1875 25.71875 288.539062 30.484375 286.441406 34.242188 C 284.316406 38.046875 279.550781 39.394531 275.792969 37.296875 C 272.03125 35.195312 270.679688 30.429688 272.800781 26.628906 C 274.902344 22.871094 279.667969 21.519531 283.425781 23.621094 Z M 283.425781 23.621094 " fill-opacity="1" fill-rule="evenodd"/></g></g></g><g clip-path="url(#7e3d26378d)"><g clip-path="url(#feb929b8bf)"><g clip-path="url(#93e470947f)"><path fill="#ffbd59" d="M 272.417969 5.035156 C 275.433594 6.71875 276.492188 10.464844 274.8125 13.472656 C 273.152344 16.445312 269.382812 17.542969 266.371094 15.863281 C 263.398438 14.203125 262.324219 10.390625 263.980469 7.425781 C 265.660156 4.417969 269.445312 3.375 272.417969 5.035156 Z M 272.417969 5.035156 " fill-opacity="1" fill-rule="evenodd"/></g></g></g></svg>